<?xml version="1.0" encoding="UTF-8"?>
<svg version="1.1" xmlns="http://www.w3.org/2000/svg" width="1024" height="1024">
<path d="M0 0 C337.92 0 675.84 0 1024 0 C1024 337.92 1024 675.84 1024 1024 C686.08 1024 348.16 1024 0 1024 C0 686.08 0 348.16 0 0 Z " fill="#FDFEFE" transform="translate(0,0)"/>
<path d="M0 0 C0.11582308 9.97034519 0.20467928 19.9405305 0.25906086 29.91141129 C0.28516082 34.54128014 0.32056571 39.17068892 0.37719727 43.80029297 C0.43150349 48.2677335 0.46141753 52.73473139 0.47438622 57.2024765 C0.48362867 58.90738647 0.50167732 60.61227207 0.52865028 62.31699371 C0.5649241 64.70437559 0.56994634 67.08992618 0.56762695 69.47753906 C0.58560333 70.18316483 0.60357971 70.88879059 0.62210083 71.61579895 C0.60127258 73.59576416 0.60127258 73.59576416 0 77 C-2.44099426 79.33587646 -2.44099426 79.33587646 -5 81 C-6.54876307 83.10448191 -6.54876307 83.10448191 -7.6875 85.375 C-8.08324219 86.10460937 -8.47898437 86.83421875 -8.88671875 87.5859375 C-11.52051666 93.29712034 -12.24699502 98.13092688 -12.03320312 104.38183594 C-11.99410659 106.08208128 -11.95551524 107.78233829 -11.9173584 109.48260498 C-11.89396896 110.37810814 -11.87057953 111.2736113 -11.84648132 112.19625092 C-11.73436576 116.98830616 -11.69856289 121.78115305 -11.65234375 126.57421875 C-11.59279987 132.65205258 -11.51064318 138.72583974 -11.32470703 144.80126953 C-10.22389482 182.22137364 -10.22389482 182.22137364 -19.25158691 192.01593018 C-22.29158239 194.71095363 -25.46977984 197.03434395 -28.84936523 199.28283691 C-31.98593555 201.78721509 -33.81811785 204.8290722 -35.81848145 208.27020264 C-36.20838257 208.84103577 -36.59828369 209.4118689 -37 210 C-37.66 210 -38.32 210 -39 210 C-40.34913857 208.29391445 -41.62768278 206.53188174 -42.875 204.75 C-57.13380961 185.1291529 -77.42602886 171.45158987 -98.625 160.25 C-99.4713501 159.80205078 -100.3177002 159.35410156 -101.18969727 158.89257812 C-107.70050664 155.51906281 -114.17254999 152.84477084 -121 150 C-121 103.47 -121 56.94 -121 9 C-105.16 9 -89.32 9 -73 9 C-72.74700437 16.56686928 -72.52829938 24.11903256 -72.39575195 31.68676758 C-72.34050898 34.25856267 -72.26549534 36.83001342 -72.17016602 39.40063477 C-72.03634323 43.10258804 -71.97428002 46.79997191 -71.92578125 50.50390625 C-71.86900711 51.64896133 -71.81223297 52.79401642 -71.7537384 53.97377014 C-71.75116494 57.32081265 -71.87014152 59.84452178 -73 63 C-75.60967977 65.40595542 -78.14943487 66.97169425 -81.30192566 68.59068298 C-88.91717901 72.56844815 -92.15296741 80.2723401 -95 88 C-95.33 92.62 -95.66 97.24 -96 102 C-72.9 102 -49.8 102 -26 102 C-27.05200316 87.27195583 -28.2275178 78.76256199 -39 69 C-40.32047217 68.30820851 -41.65238727 67.63730852 -43 67 C-43.09997246 62.35935528 -43.17197966 57.71935728 -43.21972656 53.07788086 C-43.23966084 51.50387635 -43.26681871 49.92994411 -43.30175781 48.35620117 C-43.62061284 33.60915632 -41.40175328 22.95296174 -31.03515625 11.90625 C-22.32132683 3.46029599 -12.01172326 -0.09908081 0 0 Z " fill="#5DB1D6" transform="translate(550,373)"/>
<path d="M0 0 C28.18483852 -0.66995985 56.91447153 7.41895073 82 20 C82.72364746 20.35707031 83.44729492 20.71414063 84.19287109 21.08203125 C111.22246516 34.51082233 134.6356101 53.8073734 150 80 C150.3403125 79.39414062 150.680625 78.78828125 151.03125 78.1640625 C158.70967468 64.89019004 169.00331459 52.5935338 181 43 C181.80171631 42.35442139 181.80171631 42.35442139 182.61962891 41.69580078 C192.79864989 33.56964534 203.40255582 26.91226719 215 21 C215.65355469 20.66629395 216.30710937 20.33258789 216.98046875 19.98876953 C236.56790782 10.12942198 257.41552544 4.4055582 279.0625 1.1875 C279.88202148 1.0635083 280.70154297 0.9395166 281.54589844 0.81176758 C288.04181638 -0.07504939 294.45128229 -0.12014062 301 0 C303.12310013 5.46065162 305.24086739 10.92333002 307.35375977 16.38793945 C308.07300642 18.2459258 308.79369679 20.10335395 309.51586914 21.96020508 C310.55476559 24.63216381 311.58842169 27.30609924 312.62109375 29.98046875 C312.94403915 30.80773972 313.26698456 31.63501068 313.59971619 32.48735046 C315.06793438 36.3038313 316.39324534 39.93223059 317 44 C315.72253906 44.01417969 314.44507813 44.02835938 313.12890625 44.04296875 C256.21181627 45.29029285 193.12804922 61.51181024 152 103 C151.67 103.66 151.34 104.32 151 105 C149 105 149 105 146.875 103 C145.36666676 101.45276991 143.89699091 99.88473413 142.45703125 98.2734375 C131.89469925 86.9416641 117.60958914 79.11727659 104 72 C103.36610352 71.66403809 102.73220703 71.32807617 102.07910156 70.98193359 C88.68261066 63.97627249 74.39397717 59.49113021 60 55 C59.27635254 54.76796875 58.55270508 54.5359375 57.80712891 54.296875 C33.76021736 46.65350768 8.04476697 45.0607137 -17 44 C-14.72027637 35.69391834 -11.67471733 27.74995084 -8.5 19.75 C-8.00881035 18.4975151 -7.51792326 17.2449115 -7.02734375 15.9921875 C-4.87500084 10.53802155 -2.68279501 5.21872167 0 0 Z " fill="#AAD087" transform="translate(362,518)"/>
<path d="M0 0 C12.08892687 1.20889269 21.72003388 3.75681635 30 13 C36.87252955 21.68850547 39.43754265 29.67803442 39.51171875 40.625 C39.52966995 41.61250244 39.54762115 42.60000488 39.56611633 43.61743164 C39.61992681 46.7449121 39.654021 49.87224252 39.6875 53 C39.7206989 55.13153116 39.75519091 57.2630426 39.79101562 59.39453125 C39.87563602 64.59621951 39.94410862 69.79792792 40 75 C40.45890625 74.59007812 40.9178125 74.18015625 41.390625 73.7578125 C42.00421875 73.21898437 42.6178125 72.68015625 43.25 72.125 C43.85328125 71.59132813 44.4565625 71.05765625 45.078125 70.5078125 C49.02950474 67.40774628 50.75608466 67 56 67 C56 59.08 56 51.16 56 43 C56.99 43 57.98 43 59 43 C59 50.92 59 58.84 59 67 C61.31 67.33 63.62 67.66 66 68 C71.87100928 71.11522941 76.30020342 75.7549338 79.375 81.625 C80 84 80 84 80 89 C65.15 89 50.3 89 35 89 C35 90.65 35 92.3 35 94 C49.85 94 64.7 94 80 94 C80 110.5 80 127 80 144 C84.62 144 89.24 144 94 144 C94 152.91 94 161.82 94 171 C90.225625 171.5775 86.45125 172.155 82.5625 172.75 C73.37764623 174.18919819 64.34271024 175.89830195 55.328125 178.16796875 C52.55867499 178.86033125 49.80024325 179.45265804 47 180 C46.99413376 179.44591461 46.98826752 178.89182922 46.98222351 178.32095337 C46.91789281 172.51231095 46.83337504 166.70420242 46.73754883 160.89599609 C46.70445798 158.73330765 46.67637764 156.57053612 46.65356445 154.40771484 C46.61972574 151.28447326 46.56739649 148.16198223 46.51171875 145.0390625 C46.50532883 144.08448151 46.4989389 143.12990051 46.49235535 142.14639282 C46.25522844 131.12273641 43.26358192 122.377717 36 114 C29.36400776 107.91487198 22.76246721 105.1906168 14 103 C14 95.74 14 88.48 14 81 C12.35 81 10.7 81 9 81 C9 88.26 9 95.52 9 103 C4.545 103.495 4.545 103.495 0 104 C0 69.68 0 35.36 0 0 Z " fill="#94D3CD" transform="translate(561,338)"/>
<path d="M0 0 C-1.92493918 5.91107345 -3.98848976 11.74696425 -6.21484375 17.55078125 C-6.82489449 19.15298539 -7.43491974 20.75519923 -8.04492188 22.35742188 C-8.98970386 24.83224685 -9.93530338 27.30675651 -10.8815918 29.78100586 C-14.4535927 39.12853285 -17.96264915 48.46198474 -21 58 C-20.18257324 57.76953979 -20.18257324 57.76953979 -19.34863281 57.53442383 C-8.39906545 55.04288506 3.56743375 55.79673339 14.75 55.8125 C15.61060028 55.81343658 16.47120056 55.81437317 17.35787964 55.81533813 C42.03312867 55.87332898 65.74589714 58.44314623 90 63 C90.82371094 63.15162598 91.64742187 63.30325195 92.49609375 63.45947266 C114.8728069 67.70386297 138.96915697 75.87406263 158.796875 87.12109375 C159.39363037 87.45794189 159.99038574 87.79479004 160.60522461 88.1418457 C162.18494601 89.05154656 163.74395118 89.99696895 165.30078125 90.9453125 C167.92027453 92.26796037 167.92027453 92.26796037 170.43359375 91.3984375 C171.28050781 90.93695312 172.12742187 90.47546875 173 90 C174.53914063 89.21109375 174.53914063 89.21109375 176.109375 88.40625 C176.6861499 88.10307861 177.2629248 87.79990723 177.85717773 87.48754883 C221.23214215 64.85737586 270.78489212 55.51441152 319.3972168 55.79418945 C322.72257018 55.81269517 326.04764678 55.81469648 329.37304688 55.81445312 C331.52343988 55.81936208 333.67383103 55.82518766 335.82421875 55.83203125 C337.2885157 55.83370049 337.2885157 55.83370049 338.78239441 55.83540344 C354.8912292 55.9456146 354.8912292 55.9456146 359 58 C354.03970134 43.32956292 348.88061893 28.77191685 343.18798828 14.36767578 C342.78563965 13.34270996 342.38329102 12.31774414 341.96875 11.26171875 C341.61232422 10.36412842 341.25589844 9.46653809 340.88867188 8.54174805 C340.01308585 6.03742769 339.45328658 3.61080154 339 1 C340.56324232 1.11534604 342.12559683 1.24275126 343.6875 1.375 C344.99267578 1.47941406 344.99267578 1.47941406 346.32421875 1.5859375 C349.41938538 2.06489759 351.27614257 2.39141259 354 4 C355.66789028 6.73906969 356.69691989 9.68361585 357.78515625 12.69140625 C358.12209 13.57792374 358.45902374 14.46444122 358.8061676 15.37782288 C359.88980365 18.24515661 360.94592802 21.12168126 362 24 C362.70722752 25.89602261 363.41539411 27.7916952 364.12451172 29.68701172 C365.90195806 34.46037324 367.649809 39.24391781 369.38452148 44.03295898 C370.45630021 46.98935859 371.53552168 49.9429743 372.61523438 52.89648438 C373.30512701 54.79411111 373.99459673 56.69189165 374.68359375 58.58984375 C375.0033165 59.46374252 375.32303925 60.3376413 375.65245056 61.23802185 C376.09410301 62.46199425 376.09410301 62.46199425 376.54467773 63.71069336 C376.93150978 64.77603554 376.93150978 64.77603554 377.32615662 65.86289978 C378.06933142 68.21988521 378.55477688 70.57066324 379 73 C373.52204533 72.55232254 368.06901439 72.04468548 362.62719727 71.26586914 C347.36420493 69.08740177 332.34594839 68.39932615 316.9375 68.4375 C315.72376709 68.4379834 314.51003418 68.4384668 313.25952148 68.43896484 C291.36095655 68.49916117 270.39466263 70.37428983 249 75 C248.27828613 75.15464722 247.55657227 75.30929443 246.81298828 75.46862793 C208.3677498 83.64767403 208.3677498 83.64767403 173.3828125 100.79296875 C170.09443363 102.45872133 168.51817607 102.0132695 165 101 C162.42754487 99.8701484 159.94279916 98.69816416 157.4375 97.4375 C131.54700583 84.91487382 104.25091122 77.8690978 76 73 C75.0836377 72.84015625 74.16727539 72.6803125 73.22314453 72.515625 C70.7129891 72.08240494 68.20124844 71.66181919 65.6875 71.25 C64.64166748 71.07645996 64.64166748 71.07645996 63.57470703 70.89941406 C53.07910246 69.26483233 42.47484799 68.83956351 31.8671875 68.76171875 C30.20423645 68.74743584 30.20423645 68.74743584 28.50769043 68.73286438 C24.96343372 68.70859014 21.41932835 68.6959087 17.875 68.6875 C16.67111633 68.68355225 15.46723267 68.67960449 14.22686768 68.67553711 C-2.45123727 68.64993543 -18.57160584 69.05769815 -34.92431641 72.6328125 C-37 73 -37 73 -41 73 C-39.06522672 65.40498511 -36.69457348 58.10048567 -33.91015625 50.77734375 C-33.52435898 49.75121475 -33.13856171 48.72508575 -32.74107361 47.66786194 C-31.5195214 44.42263694 -30.29101555 41.18009438 -29.0625 37.9375 C-28.24240524 35.75992876 -27.42274024 33.58219562 -26.60351562 31.40429688 C-22.49568871 20.50379124 -22.49568871 20.50379124 -21.0239563 16.67379761 C-20.32155441 14.83965634 -19.63198856 13.00056304 -18.95333862 11.15750122 C-18.61351959 10.25804779 -18.27370056 9.35859436 -17.92358398 8.43188477 C-17.62524155 7.6270314 -17.32689911 6.82217804 -17.01951599 5.99293518 C-15.66773779 3.35049861 -13.91666493 2.31066887 -11.1328125 1.3671875 C-7.342759 0.43810824 -3.93632635 -0.2460204 0 0 Z " fill="#2B85B5" transform="translate(343,537)"/>
<path d="M0 0 C0.11582308 9.97034519 0.20467928 19.9405305 0.25906086 29.91141129 C0.28516082 34.54128014 0.32056571 39.17068892 0.37719727 43.80029297 C0.43150349 48.2677335 0.46141753 52.73473139 0.47438622 57.2024765 C0.48362867 58.90738647 0.50167732 60.61227207 0.52865028 62.31699371 C0.5649241 64.70437559 0.56994634 67.08992618 0.56762695 69.47753906 C0.58560333 70.18316483 0.60357971 70.88879059 0.62210083 71.61579895 C0.60127258 73.59576416 0.60127258 73.59576416 0 77 C-2.44099426 79.33587646 -2.44099426 79.33587646 -5 81 C-6.54876307 83.10448191 -6.54876307 83.10448191 -7.6875 85.375 C-8.08324219 86.10460937 -8.47898437 86.83421875 -8.88671875 87.5859375 C-11.52051666 93.29712034 -12.24699502 98.13092688 -12.03320312 104.38183594 C-11.99410659 106.08208128 -11.95551524 107.78233829 -11.9173584 109.48260498 C-11.89396896 110.37810814 -11.87057953 111.2736113 -11.84648132 112.19625092 C-11.73436576 116.98830616 -11.69856289 121.78115305 -11.65234375 126.57421875 C-11.59279987 132.65205258 -11.51064318 138.72583974 -11.32470703 144.80126953 C-10.22378826 182.21112043 -10.22378826 182.21112043 -19.34924316 192.2600708 C-22.37734508 194.99810618 -25.45277775 197.4339453 -28.9173584 199.59576416 C-31.48569359 201.23105539 -31.48569359 201.23105539 -35 205 C-35 171.01 -35 137.02 -35 102 C-32.03 102 -29.06 102 -26 102 C-26.37337538 89.04387434 -28.15804908 80.48338382 -37 70.8125 C-38.94065497 69.05378143 -40.65341999 68.1097368 -43 67 C-43.09997246 62.35935528 -43.17197966 57.71935728 -43.21972656 53.07788086 C-43.23966084 51.50387635 -43.26681871 49.92994411 -43.30175781 48.35620117 C-43.62061284 33.60915632 -41.40175328 22.95296174 -31.03515625 11.90625 C-22.32132683 3.46029599 -12.01172326 -0.09908081 0 0 Z " fill="#2482B3" transform="translate(550,373)"/>
<path d="M0 0 C17.49 0 34.98 0 53 0 C53.08021762 26.08409567 53.08021762 26.08409567 53.09765625 37.17773438 C53.10962541 44.7561319 53.12380549 52.33448122 53.15087891 59.9128418 C53.17256301 66.02065243 53.18455927 72.12841141 53.18975449 78.23625755 C53.19345822 80.56992596 53.20069038 82.90359144 53.21146011 85.23723793 C53.22591603 88.4984721 53.22798041 91.75949106 53.22705078 95.02075195 C53.23424133 95.99179367 53.24143188 96.96283539 53.24884033 97.96330261 C53.246091 98.85091278 53.24334167 99.73852295 53.24050903 100.6530304 C53.24235262 101.42457112 53.24419621 102.19611185 53.24609566 102.9910326 C53 105 53 105 51 108 C50.34 108 49.68 108 49 108 C47.65086143 106.29391445 46.37231722 104.53188174 45.125 102.75 C37.49103412 92.24527476 28.18142684 83.85683537 18.0078125 75.86328125 C17.43466309 75.39801025 16.86151367 74.93273926 16.27099609 74.45336914 C13.90258146 72.80852882 13.90258146 72.80852882 10.46728516 71.81030273 C5.96552139 70.09537578 2.51267238 68.24102371 0 64 C-2.31285034 54.22647592 -1.3790739 43.68273522 -0.96130371 33.71405029 C-0.79185695 29.24432287 -0.72844381 24.77194869 -0.6469574 20.29991913 C-0.51182888 13.52785052 -0.24361663 6.77292907 0 0 Z " fill="#94CAA8" transform="translate(462,475)"/>
<path d="M0 0 C0 35.31 0 70.62 0 107 C-3.60802999 106.39866167 -7.02777707 105.80416896 -10.5546875 104.94921875 C-24.30173935 101.68484689 -38.04280726 99.21673061 -52 97 C-52 88.09 -52 79.18 -52 70 C-47.05 70 -42.1 70 -37 70 C-37.02094727 68.77482666 -37.04189453 67.54965332 -37.06347656 66.28735352 C-37.1362981 61.70837252 -37.18195214 57.12944193 -37.21972656 52.55004883 C-37.23974646 50.5743751 -37.26697092 48.59875991 -37.30175781 46.62329102 C-37.35070207 43.7708485 -37.37306525 40.91919451 -37.390625 38.06640625 C-37.41127014 37.19415909 -37.43191528 36.32191193 -37.45318604 35.42323303 C-37.45698667 24.85384522 -32.45879146 16.94994236 -25.48046875 9.34375 C-18.1843518 2.38492313 -9.89111207 0 0 0 Z " fill="#6CBDB6" transform="translate(421,412)"/>
<path d="M0 0 C-0.66 4.29 -1.32 8.58 -2 13 C-3.3303125 13.4125 -4.660625 13.825 -6.03125 14.25 C-17.60669673 17.92139344 -28.36986768 22.13118783 -39 28 C-40.04285156 28.56460937 -41.08570313 29.12921875 -42.16015625 29.7109375 C-54.83801197 36.82657193 -66.02696238 45.38375947 -76.43847656 55.49414062 C-77.94808947 56.94993994 -79.48206717 58.37484304 -81.0234375 59.796875 C-109.89769854 86.91846084 -129.75890919 130.47184318 -131.19213867 170.09228516 C-131.27444231 173.66633932 -131.28155397 177.23865354 -131.26074219 180.81347656 C-131.25000821 182.99832893 -131.26071795 185.18235955 -131.2734375 187.3671875 C-131.28683567 199.73161166 -129.77046973 211.59271467 -126.875 223.625 C-125.87429702 227.81943587 -125 231.65268832 -125 236 C-130.445 236.99 -130.445 236.99 -136 238 C-138.88761249 229.35664949 -140.98817219 220.89907892 -142.25 211.875 C-142.41838379 210.67576904 -142.58676758 209.47653809 -142.76025391 208.2409668 C-145.1270982 189.88773191 -144.98747856 171.26958043 -142 153 C-141.76023437 151.31003906 -141.76023437 151.31003906 -141.515625 149.5859375 C-135.23602228 111.99318068 -116.0126915 78.28254182 -90 51 C-89.27296875 50.22011719 -88.5459375 49.44023437 -87.796875 48.63671875 C-68.08404985 28.08427327 -29.89595593 0 0 0 Z " fill="#2A85B6" transform="translate(467,291)"/>
<path d="M0 0 C46.12765634 9.41190564 86.46812386 40.20703945 112.3046875 78.83984375 C122.93967982 95.07200154 131.35072443 112.5100099 136.875 131.125 C137.14908691 132.04087891 137.42317383 132.95675781 137.70556641 133.90039062 C142.32782235 150.32360167 143.57192905 166.43733279 143.5 183.4375 C143.49989929 184.43948425 143.49979858 185.44146851 143.49969482 186.47381592 C143.42734717 223.14530565 143.42734717 223.14530565 136 238 C132.04 237.67 128.08 237.34 124 237 C124.25394531 235.90945313 124.50789062 234.81890625 124.76953125 233.6953125 C125.70560447 229.62941554 126.59411244 225.55437118 127.46533203 221.47412109 C127.79441557 219.95132082 128.13206257 218.43030527 128.48388672 216.91259766 C138.04027179 175.35633032 127.88937577 128.06889587 106 92 C103.15902217 87.54459197 100.14598593 83.24333427 97 79 C96.59442871 78.44489746 96.18885742 77.88979492 95.77099609 77.31787109 C76.01109981 50.44778335 49.78136816 31.46236808 19 19 C18.0203125 18.59007812 17.040625 18.18015625 16.03125 17.7578125 C11.41288723 15.85204232 6.83456564 14.26119104 2 13 C1.34 8.71 0.68 4.42 0 0 Z " fill="#2A85B6" transform="translate(557,291)"/>
<path d="M0 0 C14.85 0 29.7 0 45 0 C45 16.17 45 32.34 45 49 C49.62 49 54.24 49 59 49 C59 57.91 59 66.82 59 76 C55.225625 76.5775 51.45125 77.155 47.5625 77.75 C38.37764623 79.18919819 29.34271024 80.89830195 20.328125 83.16796875 C17.55867499 83.86033125 14.80024325 84.45265804 12 85 C11.99413376 84.44591461 11.98826752 83.89182922 11.98222351 83.32095337 C11.91789281 77.51231095 11.83337504 71.70420242 11.73754883 65.89599609 C11.70445798 63.73330765 11.67637764 61.57053612 11.65356445 59.40771484 C11.61972574 56.28447326 11.56739649 53.16198223 11.51171875 50.0390625 C11.50532883 49.08448151 11.4989389 48.12990051 11.49235535 47.14639282 C11.30497238 38.43525397 9.71098543 30.51051898 4.375 23.4375 C3.76398437 22.61121094 3.15296875 21.78492188 2.5234375 20.93359375 C1.14423688 19.1049643 1.14423688 19.1049643 0 18 C0 12.06 0 6.12 0 0 Z " fill="#69BCB8" transform="translate(596,433)"/>
<path d="M0 0 C12.6869626 -0.31341311 20.56631983 0.01851828 30.38427734 8.69873047 C44.57114523 20.12453975 64.46890797 27.35465122 81.75 32.375 C82.52770752 32.60155273 83.30541504 32.82810547 84.10668945 33.06152344 C98.44338125 36.97728483 112.30522195 38.49640335 127.12817383 38.39111328 C129.80016595 38.37507404 132.4706322 38.39104116 135.14257812 38.41015625 C151.4692456 38.43178606 167.46984242 36.61042961 183.125 31.8125 C184.12797119 31.51134277 185.13094238 31.21018555 186.16430664 30.89990234 C195.4821492 28.01084438 204.27167961 24.33505911 213 20 C213.72268066 19.64679687 214.44536133 19.29359375 215.18994141 18.9296875 C225.46031087 13.87070595 236.81247755 8.18752245 245 0 C246.34267413 -0.08631874 247.68974322 -0.10706473 249.03515625 -0.09765625 C249.84404297 -0.09443359 250.65292969 -0.09121094 251.48632812 -0.08789062 C252.7615332 -0.07532227 252.7615332 -0.07532227 254.0625 -0.0625 C254.91650391 -0.05798828 255.77050781 -0.05347656 256.65039062 -0.04882812 C258.76695663 -0.03700373 260.88348685 -0.01906769 263 0 C259.12345164 4.86937694 255.13370503 8.77597178 250.0625 12.375 C249.4120874 12.84268799 248.7616748 13.31037598 248.09155273 13.79223633 C231.61878669 25.46845637 213.98421357 34.23986512 195 41 C194.39800781 41.24532471 193.79601562 41.49064941 193.17578125 41.7434082 C187.26882581 44.12674293 181.23962222 45.35199802 175 46.5625 C173.97777344 46.77068359 172.95554687 46.97886719 171.90234375 47.19335938 C157.81062937 49.97852473 144.0314115 51.38715545 129.6875 51.3125 C128.61290527 51.31026428 128.61290527 51.31026428 127.51660156 51.3079834 C116.1010822 51.26547341 105.16192269 50.46684074 94 48 C92.59521584 47.71793318 91.19026651 47.43668781 89.78515625 47.15625 C58.57109488 40.6406935 30.6575782 25.93012527 6 6 C5.44103027 5.54979492 4.88206055 5.09958984 4.30615234 4.63574219 C2.85067644 3.44803298 1.42274745 2.22672447 0 1 C0 0.67 0 0.34 0 0 Z " fill="#2886B7" transform="translate(380,615)"/>
<path d="M0 0 C17.82 0 35.64 0 54 0 C54 13.2 54 26.4 54 40 C48.06 42.475 48.06 42.475 42 45 C29.22913512 50.57721761 17.50189333 57.09696735 5.89672852 64.81420898 C4.00236945 65.99851868 1.99823637 67.00088182 0 68 C0 45.56 0 23.12 0 0 Z " fill="#5CB1D8" transform="translate(545,481)"/>
<path d="M0 0 C4.85685397 1.26278203 6.6547907 4.62261697 9.125 8.8125 C10.27878585 11.12439299 11.21580466 13.38797909 12.125 15.8125 C15.755 15.8125 19.385 15.8125 23.125 15.8125 C23.125 16.8025 23.125 17.7925 23.125 18.8125 C19.825 19.1425 16.525 19.4725 13.125 19.8125 C13.125 23.1125 13.125 26.4125 13.125 29.8125 C14.445 30.4725 15.765 31.1325 17.125 31.8125 C18.79834039 32.80129205 20.46651823 33.79898336 22.125 34.8125 C22.41117188 34.24015625 22.69734375 33.6678125 22.9921875 33.078125 C24.703125 29.65625 26.4140625 26.234375 28.125 22.8125 C29.115 22.8125 30.105 22.8125 31.125 22.8125 C30.75984028 27.8030162 29.22817972 30.40378574 26.0859375 34.1015625 C24.93267806 35.77274378 24.93267806 35.77274378 25.31640625 37.76953125 C26.50318195 40.76800319 28.26474351 43.25104495 30.06640625 45.91015625 C31.125 47.8125 31.125 47.8125 31.125 50.8125 C28.42061004 50.44844751 27.38093617 50.13107318 25.640625 47.96484375 C25.01414062 46.86849609 25.01414062 46.86849609 24.375 45.75 C23.94703125 45.01652344 23.5190625 44.28304687 23.078125 43.52734375 C22.60632813 42.67849609 22.60632813 42.67849609 22.125 41.8125 C18.75534767 42.9964319 16.34643281 43.97113245 14.125 46.8125 C13.76353543 49.09580101 13.76353543 49.09580101 13.9375 51.5 C13.999375 52.923125 14.06125 54.34625 14.125 55.8125 C17.425 56.1425 20.725 56.4725 24.125 56.8125 C24.125 57.8025 24.125 58.7925 24.125 59.8125 C22.52092672 59.83958567 20.9167215 59.85893483 19.3125 59.875 C17.97251953 59.89240234 17.97251953 59.89240234 16.60546875 59.91015625 C14.125 59.8125 14.125 59.8125 11.125 58.8125 C11.08375 59.616875 11.0425 60.42125 11 61.25 C9.61093248 66.9054892 6.23174565 71.70575435 2.125 75.8125 C-0.125 75.9375 -0.125 75.9375 -2.875 74.8125 C-7.14182287 70.30455446 -10.875 65.1852863 -10.875 58.8125 C-12.36 59.3075 -12.36 59.3075 -13.875 59.8125 C-16.0165979 59.98282265 -18.16463927 60.07867837 -20.3125 60.125 C-22.01212891 60.18107422 -22.01212891 60.18107422 -23.74609375 60.23828125 C-26.875 59.8125 -26.875 59.8125 -29.24609375 58.0234375 C-31.19290196 55.38100717 -31.54619988 53.30199692 -31.41796875 50.03515625 C-30.53235027 46.40985472 -28.38174623 43.78018912 -26.08984375 40.890625 C-24.66807876 38.92180607 -24.66807876 38.92180607 -25.0625 36.8046875 C-25.9218774 34.69756023 -26.87108377 32.69801949 -27.9375 30.6875 C-29.875 27.03314057 -29.875 27.03314057 -29.875 24.8125 C-28.885 24.8125 -27.895 24.8125 -26.875 24.8125 C-25.48828125 26.4921875 -25.48828125 26.4921875 -24.1875 28.6875 C-23.75050781 29.40679687 -23.31351562 30.12609375 -22.86328125 30.8671875 C-21.875 32.8125 -21.875 32.8125 -21.875 34.8125 C-16.75755751 32.07897389 -16.75755751 32.07897389 -13.96484375 27.25390625 C-13.49335971 24.79171184 -13.17368874 22.30157282 -12.875 19.8125 C-16.175 19.4825 -19.475 19.1525 -22.875 18.8125 C-22.875 17.8225 -22.875 16.8325 -22.875 15.8125 C-19.245 15.8125 -15.615 15.8125 -11.875 15.8125 C-11.1325 14.265625 -10.39 12.71875 -9.625 11.125 C-4.65810213 1.31642017 -4.65810213 1.31642017 0 0 Z " fill="#61B9CB" transform="translate(511.875,275.1875)"/>
<path d="M0 0 C2.31 5.61 4.62 11.22 7 17 C4.83969238 17.029729 4.83969238 17.029729 2.63574219 17.06005859 C-2.80662937 17.13724357 -8.24877184 17.22576672 -13.69091797 17.31738281 C-16.02778539 17.35521384 -18.36470203 17.39013812 -20.70166016 17.421875 C-38.62345554 17.66811693 -56.56913268 18.13933176 -74.1875 21.75 C-75.03586426 21.91918945 -75.88422852 22.08837891 -76.75830078 22.26269531 C-79.50981355 22.82325319 -82.25524718 23.40725878 -85 24 C-86.47992432 24.31710937 -86.47992432 24.31710937 -87.98974609 24.640625 C-110.54874388 29.55453682 -131.33078795 36.72833841 -151.98925781 47.02636719 C-154.28369725 48.13737065 -156.61034585 49.11241417 -159 50 C-135.69702996 24.91503814 -96.1404866 13.26819436 -64 6 C-63.23526367 5.82388184 -62.47052734 5.64776367 -61.68261719 5.46630859 C-51.54670004 3.20117685 -41.19428861 2.32009783 -30.875 1.3125 C-30.20135406 1.24542847 -29.52770813 1.17835693 -28.83364868 1.10925293 C-19.16353312 0.16188727 -9.70310923 -0.1223081 0 0 Z " fill="#74C5D9" transform="translate(682,570)"/>
<path d="M0 0 C19.31749669 -0.47243878 38.15894899 1.20568718 57.125 4.875 C58.39230957 5.11943848 59.65961914 5.36387695 60.96533203 5.61572266 C92.20023219 11.90849807 133.66231591 23.7199086 156 48 C152.03700667 46.77685391 148.34231972 45.26706285 144.59838867 43.48754883 C109.98073691 27.19570457 70.74014451 18.27419402 32.55078125 17.68359375 C31.41215134 17.66281265 30.27352142 17.64203156 29.10038757 17.62062073 C25.50447953 17.5558417 21.90850577 17.49657741 18.3125 17.4375 C15.8574154 17.39424645 13.40233715 17.35063012 10.94726562 17.30664062 C4.96491087 17.20023505 -1.01750756 17.098343 -7 17 C-6.52597719 15.55422866 -6.04991877 14.10912463 -5.57299805 12.66430664 C-5.30811081 11.85949356 -5.04322357 11.05468048 -4.77030945 10.22547913 C-3.51945286 6.61166492 -1.78074299 3.3772712 0 0 Z " fill="#75C6DA" transform="translate(342,570)"/>
<path d="M0 0 C1.32 0 2.64 0 4 0 C4 10.23 4 20.46 4 31 C5.98 31 7.96 31 10 31 C17.47937799 33.12498216 22.59471777 38.74286331 26.32421875 45.34375 C28.39339068 49.69990144 29 51.99019858 29 57 C11.18 57 -6.64 57 -25 57 C-23.94569107 48.56552853 -22.23312126 42.94874651 -15.96484375 37.1015625 C-14.0224129 35.61297064 -12.09861115 34.25746741 -10 33 C-9.38382812 32.6184375 -8.76765625 32.236875 -8.1328125 31.84375 C-6 31 -6 31 0 31 C0 20.77 0 10.54 0 0 Z " fill="#A5CF99" transform="translate(487,411)"/>
<path d="M0 0 C0.99 0 1.98 0 3 0 C3 9.24 3 18.48 3 28 C5.31 28.33 7.62 28.66 10 29 C16.61777314 32.01661899 20.88930017 36.48697222 24 43 C25 46 25 46 25 56 C9.16 56 -6.68 56 -23 56 C-22.12227256 46.34499811 -21.30206182 39.52629676 -14.0625 33.125 C-9.04755872 29.64524483 -6.20992843 28 0 28 C0 18.76 0 9.52 0 0 Z " fill="#72C1BC" transform="translate(452,320)"/>
<path d="M0 0 C3.49735826 0.49962261 4.35843017 1.70055844 6.625 4.375 C7.99707031 7.21582031 7.99707031 7.21582031 9.203125 10.453125 C9.86054688 12.19335938 9.86054688 12.19335938 10.53125 13.96875 C10.9746875 15.1753125 11.418125 16.381875 11.875 17.625 C12.33390625 18.84703125 12.7928125 20.0690625 13.265625 21.328125 C14.39517585 24.34026059 15.51452947 27.35578928 16.625 30.375 C18.93892236 26.05646834 19.60818058 21.64392903 20.39257812 16.86328125 C21.08994632 13.00271259 21.80365227 10.18224099 24.625 7.375 C27.1875 7 27.1875 7 29.625 7.375 C31.625 9.375 31.625 9.375 31.70263672 11.91748047 C30.98943517 20.27814191 29.60489256 28.32037622 27.75 36.5 C27.49347656 37.70398438 27.23695313 38.90796875 26.97265625 40.1484375 C26.71613281 41.29828125 26.45960938 42.448125 26.1953125 43.6328125 C25.96602051 44.6655127 25.73672852 45.69821289 25.50048828 46.76220703 C24.59398527 49.46755984 23.89157494 50.68092879 21.625 52.375 C19.125 52.75 19.125 52.75 16.625 52.375 C13.37015885 49.91931236 12.35827934 46.68152629 10.92578125 42.95703125 C10.6858696 42.33978683 10.44595795 41.72254242 10.19877625 41.08659363 C9.43753376 39.1230246 8.68740284 37.15542393 7.9375 35.1875 C7.42195235 33.85193214 6.90568424 32.51664216 6.38867188 31.18164062 C5.12575205 27.91593809 3.87275942 24.64652959 2.625 21.375 C1.19807367 24.03199688 0.26609436 26.42774357 -0.33984375 29.37890625 C-0.58057617 30.48975586 -0.58057617 30.48975586 -0.82617188 31.62304688 C-1.15101294 33.16897723 -1.47131081 34.71586904 -1.78710938 36.26367188 C-1.94888672 37.00294922 -2.11066406 37.74222656 -2.27734375 38.50390625 C-2.41648193 39.17494385 -2.55562012 39.84598145 -2.69897461 40.53735352 C-3.53215673 42.80220069 -4.46122678 43.91331729 -6.375 45.375 C-11.80978261 44.94021739 -11.80978261 44.94021739 -13.375 43.375 C-13.7200657 37.38280134 -12.86197786 32.52159757 -11.125 26.8125 C-10.66435172 25.23857734 -10.20473402 23.66435272 -9.74609375 22.08984375 C-9.39973877 20.91397705 -9.39973877 20.91397705 -9.04638672 19.71435547 C-8.40075432 17.46473743 -7.80116057 15.20912282 -7.22265625 12.94140625 C-7.04702148 12.2544165 -6.87138672 11.56742676 -6.69042969 10.85961914 C-6.2141105 8.98000815 -5.74170468 7.09940672 -5.26953125 5.21875 C-4.20485669 1.83410772 -3.58671276 0.56632307 0 0 Z " fill="#AFD08E" transform="translate(434.375,699.625)"/>
<path d="M0 0 C4.0378771 0.51099685 4.95904552 1.6751944 7.5234375 4.7734375 C8.29429687 5.69125 9.06515625 6.6090625 9.859375 7.5546875 C10.61476563 8.493125 11.37015625 9.4315625 12.1484375 10.3984375 C12.82132813 11.213125 13.49421875 12.0278125 14.1875 12.8671875 C16.21121099 15.35046632 18.18018936 17.87102796 20.1484375 20.3984375 C20.9734375 21.41679688 21.7984375 22.43515625 22.6484375 23.484375 C23.48261463 24.53839525 24.31596273 25.5930722 25.1484375 26.6484375 C25.9115625 27.60234375 26.6746875 28.55625 27.4609375 29.5390625 C29.38252494 32.79508566 29.50022807 34.68264956 29.1484375 38.3984375 C26.43964415 39.75283418 24.13910482 39.46345201 21.1484375 39.3984375 C21.0659375 40.1409375 20.9834375 40.8834375 20.8984375 41.6484375 C19.99933347 44.94515227 18.72473816 46.21248542 16.1484375 48.3984375 C12.42670023 50.25930613 8.21029214 49.82468151 4.1484375 49.3984375 C-1.738806 46.79446441 -4.76819904 41.85207384 -7.8515625 36.3984375 C-9.47535827 31.52705018 -9.5716724 27.86746171 -7.2890625 23.2109375 C-4.37169762 19.84474725 -1.81247686 18.37889468 2.1484375 16.3984375 C1.643125 15.80675781 1.1378125 15.21507812 0.6171875 14.60546875 C-0.0325 13.81527344 -0.6821875 13.02507813 -1.3515625 12.2109375 C-2.00125 11.43363281 -2.6509375 10.65632812 -3.3203125 9.85546875 C-5.06664401 7.05331946 -5.33083344 5.63896258 -4.8515625 2.3984375 C-2.8515625 0.3984375 -2.8515625 0.3984375 0 0 Z " fill="#3287B6" transform="translate(700.8515625,638.6015625)"/>
<path d="M0 0 C5.31057001 0.9736045 7.34701293 3.68174168 10.75 7.6875 C11.30429687 8.31269531 11.85859375 8.93789063 12.4296875 9.58203125 C13.58300303 10.8868191 14.72723741 12.19967807 15.86328125 13.51953125 C17.97445509 15.94541424 20.14259971 18.31405797 22.3125 20.6875 C32.75 32.34240995 32.75 32.34240995 32.75 36.5625 C31.75 38.6875 31.75 38.6875 29.75 40.6875 C26.875 40.625 26.875 40.625 23.75 39.6875 C21.375 37.125 21.375 37.125 19.75 34.6875 C16.19327147 35.12124738 13.43771718 35.82210467 10.125 37.25 C6.75 38.6875 6.75 38.6875 2.75 38.6875 C2.77320313 39.30238281 2.79640625 39.91726563 2.8203125 40.55078125 C2.84738281 41.76314453 2.84738281 41.76314453 2.875 43 C2.89820313 43.80050781 2.92140625 44.60101562 2.9453125 45.42578125 C2.75 47.6875 2.75 47.6875 0.75 50.6875 C-2.25 51 -2.25 51 -5.25 50.6875 C-7.25 48.6875 -7.25 48.6875 -7.49291992 46.46704102 C-7.48881104 45.55108154 -7.48470215 44.63512207 -7.48046875 43.69140625 C-7.47942139 42.66619873 -7.47837402 41.64099121 -7.47729492 40.5847168 C-7.45759644 38.93403198 -7.45759644 38.93403198 -7.4375 37.25 C-7.42887939 36.13085205 -7.42025879 35.0117041 -7.41137695 33.85864258 C-7.37540326 30.46769904 -7.31814956 27.07794037 -7.25 23.6875 C-7.23066406 22.70555664 -7.21132813 21.72361328 -7.19140625 20.71191406 C-7.12867148 18.09827272 -7.04047853 15.48733438 -6.9375 12.875 C-6.91518311 12.100354 -6.89286621 11.32570801 -6.86987305 10.52758789 C-6.58467568 4.79982049 -5.95798704 1.26034341 0 0 Z " fill="#3086B7" transform="translate(606.25,694.3125)"/>
<path d="M0 0 C3.63810316 1.59167013 6.76728584 3.70890196 10 6 C10.86882813 6.57621094 11.73765625 7.15242187 12.6328125 7.74609375 C18.81214286 12.09487013 18.81214286 12.09487013 19.6875 16.3125 C19 19 19 19 17 21 C11.00839545 20.8103377 7.26612428 17.59819944 2.76757812 14.0625 C-0.69531509 11.48075812 -0.69531509 11.48075812 -4.90234375 11.2265625 C-5.59457031 11.48179687 -6.28679688 11.73703125 -7 12 C-7.29254187 14.36928246 -7.29254187 14.36928246 -7 17 C-5.55887195 18.76631597 -5.55887195 18.76631597 -3.5 20.11328125 C-2.778125 20.63857422 -2.05625 21.16386719 -1.3125 21.70507812 C-0.1678125 22.50075195 -0.1678125 22.50075195 1 23.3125 C1.763125 23.86228516 2.52625 24.41207031 3.3125 24.97851562 C5.19837981 26.33399174 7.09380013 27.67332798 9 29 C8.125 34.875 8.125 34.875 7 36 C3.06032228 36.49891115 1.35507152 36.22620386 -2.03515625 34.06640625 C-3.03417969 33.24011719 -4.03320312 32.41382813 -5.0625 31.5625 C-9.95294804 27.46352375 -9.95294804 27.46352375 -16 26 C-17.29441152 27.09726181 -17.29441152 27.09726181 -17.42578125 29.76953125 C-17.31287667 33.20207504 -17.31287667 33.20207504 -14.48046875 35.44921875 C-13.39378906 36.18785156 -12.30710937 36.92648437 -11.1875 37.6875 C-3.6770012 42.88293465 -3.6770012 42.88293465 -2 45 C-2.24453124 48.34192692 -2.60543557 49.60543557 -5 52 C-10.27211063 51.84138349 -13.45112637 49.55623553 -17.375 46.3125 C-18.51143281 45.40458989 -19.64815128 44.49703723 -20.78515625 43.58984375 C-21.33187988 43.14753418 -21.87860352 42.70522461 -22.44189453 42.24951172 C-24.52932408 40.57551228 -26.66517826 38.97113755 -28.8125 37.375 C-29.864375 36.59125 -30.91625 35.8075 -32 35 C-31.25 30.25 -31.25 30.25 -29 28 C-27.68 28 -26.36 28 -25 28 C-25.061875 27.113125 -25.12375 26.22625 -25.1875 25.3125 C-24.97697059 21.59314716 -24.2132352 19.95098026 -22 17 C-19 15 -19 15 -15 15 C-15.0825 13.80375 -15.165 12.6075 -15.25 11.375 C-15.26583495 6.91746125 -13.8659892 4.4560458 -11 1 C-7.43943274 -0.78028363 -3.8807626 -0.61524285 0 0 Z " fill="#3389B9" transform="translate(771,587)"/>
<path d="M0 0 C5.56079414 5.72434691 9.125 11.02575075 9.125 19.1875 C-8.695 19.1875 -26.515 19.1875 -44.875 19.1875 C-43.5780137 10.10859593 -39.93364045 4.10221614 -32.71875 -1.59375 C-22.0933287 -8.61733357 -10.41216753 -6.56419257 0 0 Z " fill="#69BDB7" transform="translate(589.875,454.8125)"/>
<path d="M0 0 C5.45747475 1.85554142 8.90189058 5.24773776 12 10 C13.98225822 14.33572584 15.84799428 19.19469907 15 24 C13.8125 25.875 13.8125 25.875 12 27 C8.65807308 26.75546876 7.39456443 26.39456443 5 24 C4.48064349 22.01995331 3.96571672 20.03812284 3.5078125 18.04296875 C2.8978736 15.58913764 2.01245184 13.31417563 1 11 C-0.66611905 10.957279 -2.33382885 10.95936168 -4 11 C-5.41560622 12.19239385 -5.41560622 12.19239385 -5.1875 15.625 C-5.16114882 18.58687239 -4.83274724 20.58538468 -4 23.5 C-2.5568562 28.5510033 -2.01791446 32.89553098 -4.3125 37.8125 C-6.78113567 41.01258327 -8.10670614 42.70223538 -12 44 C-16.61060212 44.53570806 -20.05331196 44.47334402 -24.25 42.375 C-29.70840519 37.66092279 -34.56652958 32.47127706 -35.28515625 25.05859375 C-35.51626404 16.7085687 -35.51626404 16.7085687 -33.63671875 14.12890625 C-32 13 -32 13 -29.4375 13.125 C-27 14 -27 14 -25 17 C-24.7265625 19.05078125 -24.7265625 19.05078125 -24.625 21.3125 C-24.20033927 25.80072464 -23.08052133 28.57719853 -20 32 C-17.42267086 33.05167527 -17.42267086 33.05167527 -15 33 C-14.67 32.67 -14.34 32.34 -14 32 C-14.06517132 29.99287607 -14.06517132 29.99287607 -14.375 27.6875 C-14.46523437 26.90761719 -14.55546875 26.12773438 -14.6484375 25.32421875 C-14.95159265 23.04511267 -14.95159265 23.04511267 -15.51171875 21.0390625 C-16.71089666 16.03129555 -17.3339537 10.35186298 -14.73046875 5.76171875 C-10.29918193 0.55414811 -6.91007577 -0.68583149 0 0 Z " fill="#3187B6" transform="translate(257,562)"/>
<path d="M0 0 C0.66 0.515625 1.32 1.03125 2 1.5625 C4.56742872 3.40783939 5.60923926 3.01642719 8.6875 2.625 C9.86892578 2.42777344 9.86892578 2.42777344 11.07421875 2.2265625 C12.02748047 2.11441406 12.02748047 2.11441406 13 2 C14.757905 3.757905 14.17285485 6.17534078 14.1875 8.5625 C14.14558519 13.96951111 13.76522464 19.26242939 13.125 24.625 C13.04660889 25.31150635 12.96821777 25.9980127 12.88745117 26.70532227 C12.4382115 30.16097889 11.97024219 32.04463671 10 35 C7.0625 35.375 7.0625 35.375 4 35 C2.125 33.5 2.125 33.5 1 32 C0.01 32.66 -0.98 33.32 -2 34 C-6.67274344 34.45961411 -9.05177559 34.44727567 -13.3125 32.4375 C-17.34826108 28.77715855 -18.72855611 25.59379719 -19.28125 20.3125 C-19.49312277 13.81506838 -18.88642118 9.38704707 -14.55859375 4.30859375 C-10.15306225 -0.09693775 -6.1397703 -1.27861621 0 0 Z " fill="#AFD08F" transform="translate(487,722)"/>
<path d="M0 0 C3.49484555 0.19577122 5.38628552 0.36266561 7.85864258 2.93017578 C8.36548584 3.7601709 8.8723291 4.59016602 9.39453125 5.4453125 C9.95720703 6.35796875 10.51988281 7.270625 11.09960938 8.2109375 C11.66486328 9.17257812 12.23011719 10.13421875 12.8125 11.125 C13.39708984 12.0634375 13.98167969 13.001875 14.58398438 13.96875 C17.64172393 19.02837003 19.76108039 23.05172565 20 29 C17 31 17 31 13.8125 30.625 C12.884375 30.41875 11.95625 30.2125 11 30 C10.95875 30.7425 10.9175 31.485 10.875 32.25 C10 35 10 35 7.5 37.3125 C3.06732875 39.44968078 -0.18599204 40.30428787 -5 39 C-10.92260496 35.28550684 -15.21487252 30.78348442 -17 24 C-17.65887067 19.18517589 -17.51307482 15.98950143 -15.25 11.625 C-11.61538462 7.38461538 -11.61538462 7.38461538 -9 6 C-5.75 5.8125 -5.75 5.8125 -3 6 C-2.690625 5.195625 -2.38125 4.39125 -2.0625 3.5625 C-1 1 -1 1 0 0 Z " fill="#3388B9" transform="translate(679,671)"/>
<path d="M0 0 C4.16035626 1.08169263 5.43045297 2.95586801 7.80078125 6.43359375 C9.82069849 10.06229463 11.06833928 13.80831202 12.125 17.8125 C10.805 18.1425 9.485 18.4725 8.125 18.8125 C7.84785156 18.10222656 7.57070313 17.39195312 7.28515625 16.66015625 C6.74181641 15.28150391 6.74181641 15.28150391 6.1875 13.875 C5.64802734 12.50021484 5.64802734 12.50021484 5.09765625 11.09765625 C4.3253782 8.88831467 4.3253782 8.88831467 3.125 7.8125 C1.12541636 7.77169217 -0.87545254 7.76995644 -2.875 7.8125 C-3.69337442 9.22578129 -4.50446219 10.64328346 -5.3125 12.0625 C-5.76496094 12.85140625 -6.21742188 13.6403125 -6.68359375 14.453125 C-7.76811602 16.60083468 -8.40648716 18.46455061 -8.875 20.8125 C-7.555 21.4725 -6.235 22.1325 -4.875 22.8125 C-4.875 24.8125 -4.875 24.8125 -6.875 26.9375 C-7.535 27.55625 -8.195 28.175 -8.875 28.8125 C-8.545 29.4725 -8.215 30.1325 -7.875 30.8125 C-8.535 31.1425 -9.195 31.4725 -9.875 31.8125 C-9.90221176 33.70825251 -9.92149136 35.60411979 -9.9375 37.5 C-9.94910156 38.55574219 -9.96070313 39.61148438 -9.97265625 40.69921875 C-9.88346143 43.54274953 -9.43767868 46.03661851 -8.875 48.8125 C-9.3125 52.125 -9.3125 52.125 -9.875 54.8125 C-8.555 55.1425 -7.235 55.4725 -5.875 55.8125 C-6.06964844 56.37453125 -6.26429688 56.9365625 -6.46484375 57.515625 C-6.96895636 60.33865562 -6.42045539 61.88886135 -5.4375 64.5625 C-5.15003906 65.36171875 -4.86257813 66.1609375 -4.56640625 66.984375 C-4.33824219 67.58765625 -4.11007812 68.1909375 -3.875 68.8125 C-0.50647485 68.8690109 -0.50647485 68.8690109 3.125 67.8125 C6.2717536 64.36648741 7.125 61.44822786 7.125 56.8125 C7.785 56.8125 8.445 56.8125 9.125 56.8125 C9.125 57.4725 9.125 58.1325 9.125 58.8125 C9.785 58.8125 10.445 58.8125 11.125 58.8125 C10.77810247 65.5770019 6.80983134 71.12766866 2.125 75.8125 C-0.125 75.9375 -0.125 75.9375 -2.875 74.8125 C-7.14182287 70.30455446 -10.875 65.1852863 -10.875 58.8125 C-12.36 59.3075 -12.36 59.3075 -13.875 59.8125 C-16.0165979 59.98282265 -18.16463927 60.07867837 -20.3125 60.125 C-22.01212891 60.18107422 -22.01212891 60.18107422 -23.74609375 60.23828125 C-26.875 59.8125 -26.875 59.8125 -29.24609375 58.0234375 C-31.19290196 55.38100717 -31.54619988 53.30199692 -31.41796875 50.03515625 C-30.53235027 46.40985472 -28.38174623 43.78018912 -26.08984375 40.890625 C-24.66807876 38.92180607 -24.66807876 38.92180607 -25.0625 36.8046875 C-25.9218774 34.69756023 -26.87108377 32.69801949 -27.9375 30.6875 C-29.875 27.03314057 -29.875 27.03314057 -29.875 24.8125 C-28.885 24.8125 -27.895 24.8125 -26.875 24.8125 C-25.48828125 26.4921875 -25.48828125 26.4921875 -24.1875 28.6875 C-23.75050781 29.40679687 -23.31351562 30.12609375 -22.86328125 30.8671875 C-21.875 32.8125 -21.875 32.8125 -21.875 34.8125 C-16.75755751 32.07897389 -16.75755751 32.07897389 -13.96484375 27.25390625 C-13.49335971 24.79171184 -13.17368874 22.30157282 -12.875 19.8125 C-16.175 19.4825 -19.475 19.1525 -22.875 18.8125 C-22.875 17.8225 -22.875 16.8325 -22.875 15.8125 C-19.245 15.8125 -15.615 15.8125 -11.875 15.8125 C-11.1325 14.265625 -10.39 12.71875 -9.625 11.125 C-4.65810213 1.31642017 -4.65810213 1.31642017 0 0 Z " fill="#62B9CD" transform="translate(511.875,275.1875)"/>
<path d="M0 0 C3.67500777 1.86540525 6.41555266 4.39360532 8.265625 8.09375 C10.08003787 14.29925674 9.963901 20.92928307 7.42578125 26.8515625 C2.96464943 31.31269432 -1.20506019 34.59647296 -7.69921875 34.9140625 C-12.93273159 34.56336319 -16.02317785 32.6087927 -19.55078125 28.7265625 C-23.25053275 23.76600183 -23.77277852 19.22743637 -23.49609375 13.125 C-22.71153233 7.96723511 -20.24531562 5.38324308 -16.44921875 2.0390625 C-11.4902571 -1.48441025 -5.83460982 -1.82400232 0 0 Z " fill="#AFD191" transform="translate(567.07421875,720.6484375)"/>
<path d="M0 0 C2.3125 0.875 2.3125 0.875 4.3125 2.875 C4.86328125 5.640625 4.86328125 5.640625 4.3125 8.875 C2.33238324 11.18881014 -0.02743995 12.86619374 -2.5 14.625 C-3.14259766 15.10582031 -3.78519531 15.58664062 -4.44726562 16.08203125 C-7.1485616 18.09190742 -9.88536215 20.0069081 -12.6875 21.875 C-11.11548828 22.03935547 -11.11548828 22.03935547 -9.51171875 22.20703125 C-8.13273349 22.36650574 -6.75383129 22.52669966 -5.375 22.6875 C-4.68470703 22.75775391 -3.99441406 22.82800781 -3.28320312 22.90039062 C-0.36420575 23.25292654 1.85634716 23.54540453 4.26953125 25.2890625 C5.78924064 27.59993146 5.72732986 29.1786059 5.3125 31.875 C1.62440121 34.33373253 -1.40913837 34.38450716 -5.6875 33.875 C-7.70036282 33.24824032 -9.70361068 32.58818133 -11.6875 31.875 C-11.85185547 33.55529297 -11.85185547 33.55529297 -12.01953125 35.26953125 C-12.17899893 36.74226222 -12.33919317 38.21491465 -12.5 39.6875 C-12.57025391 40.42548828 -12.64050781 41.16347656 -12.71289062 41.92382812 C-13.05521783 44.95000065 -13.33209704 47.35246703 -15.06640625 49.90234375 C-16.6875 50.875 -16.6875 50.875 -19.8125 50.625 C-22.6875 49.875 -22.6875 49.875 -23.6875 48.875 C-24.31514392 41.97091689 -22.36885229 35.53035282 -20.6875 28.875 C-21.19539063 29.308125 -21.70328125 29.74125 -22.2265625 30.1875 C-27.84784985 34.73505831 -27.84784985 34.73505831 -32.0625 35.4375 C-34.6875 34.875 -34.6875 34.875 -36.6875 31.875 C-36.69921875 29.01171875 -36.69921875 29.01171875 -35.6875 25.875 C-33.64341313 23.87879803 -31.79834125 22.32724686 -29.5 20.6875 C-28.22621072 19.73484518 -26.95278395 18.78170549 -25.6796875 17.828125 C-25.02194336 17.34408203 -24.36419922 16.86003906 -23.68652344 16.36132812 C-20.4472696 13.95285507 -17.28984647 11.44241879 -14.125 8.9375 C-12.99893345 8.05308545 -11.87264275 7.16895619 -10.74609375 6.28515625 C-8.78731984 4.74165242 -6.85327384 3.16590777 -4.953125 1.55078125 C-2.6875 -0.125 -2.6875 -0.125 0 0 Z " fill="#3288B7" transform="translate(280.6875,590.125)"/>
<path d="M0 0 C4.34545632 2.01811455 7.20074267 4.17034606 9.8359375 8.28125 C11.42501591 13.04848524 11.29889823 16.89236781 9.7109375 21.65625 C7.8359375 24.28125 7.8359375 24.28125 5.2109375 25.16015625 C0.71793536 25.3213635 -2.1080002 23.86641868 -6.0390625 21.84375 C-6.72742188 21.50537109 -7.41578125 21.16699219 -8.125 20.81835938 C-9.81169695 19.98672407 -11.48890002 19.13588124 -13.1640625 18.28125 C-11.31600565 23.22865448 -11.31600565 23.22865448 -7.1640625 26.28125 C-5.79566162 26.51203189 -4.41892816 26.69626436 -3.0390625 26.84375 C0.8359375 27.28125 0.8359375 27.28125 2.8359375 29.28125 C2.6484375 31.78125 2.6484375 31.78125 1.8359375 34.28125 C-1.95414932 36.80797455 -3.65603592 36.72466245 -8.1640625 36.28125 C-13.49660666 34.40929427 -17.49352162 31.61916195 -21.1640625 27.28125 C-22.94650435 21.93392444 -23.18762919 15.52741865 -21.48046875 10.11328125 C-17.08035545 1.84252887 -9.25876897 -3.0751146 0 0 Z " fill="#358ABA" transform="translate(394.1640625,695.71875)"/>
<path d="M0 0 C2.97 0.495 2.97 0.495 6 1 C7.64334528 7.47873819 6.07601166 11.12466014 3.0625 16.9375 C2.67642578 17.71673828 2.29035156 18.49597656 1.89257812 19.29882812 C0.94425285 21.20718639 -0.02572955 23.10475617 -1 25 C0.08539063 24.3503125 1.17078125 23.700625 2.2890625 23.03125 C3.73397737 22.18681923 5.17931224 21.34310687 6.625 20.5 C7.33785156 20.07074219 8.05070312 19.64148438 8.78515625 19.19921875 C12.96733684 16.78199511 16.02200584 15.22265557 21 16 C23 18 23 18 23.125 21.125 C23.08375 22.07375 23.0425 23.0225 23 24 C17.20463933 27.46435569 11.21544739 30.29138865 5.0625 33.0625 C4.11181641 33.49626953 3.16113281 33.93003906 2.18164062 34.37695312 C-15.36261487 42.32083725 -15.36261487 42.32083725 -24 41 C-27.0625 39.375 -27.0625 39.375 -29 37 C-29.9375 33.875 -29.9375 33.875 -30 31 C-28 29 -28 29 -25.5 28.75 C-23 29 -23 29 -21 31 C-17.40320934 30.67673447 -17.40320934 30.67673447 -14 30 C-13.71801758 29.26885986 -13.43603516 28.53771973 -13.14550781 27.78442383 C-11.85617386 24.45681235 -10.55324842 21.13468522 -9.25 17.8125 C-8.8065625 16.66201172 -8.363125 15.51152344 -7.90625 14.32617188 C-7.46796875 13.21435547 -7.0296875 12.10253906 -6.578125 10.95703125 C-6.18012695 9.93585205 -5.78212891 8.91467285 -5.37207031 7.86254883 C-3.92349222 4.84038191 -2.18531759 2.52855056 0 0 Z " fill="#3088B8" transform="translate(288,625)"/>
<path d="M0 0 C0.99 0 1.98 0 3 0 C3 7.92 3 15.84 3 24 C5.31 24.33 7.62 24.66 10 25 C15.44449399 27.88891518 20.21630928 32.43261856 23 38 C23 40.31 23 42.62 23 45 C8.48 45 -6.04 45 -21 45 C-19.78256884 37.69541306 -17.43267157 32.95004639 -11.77734375 28.08984375 C-7.34770156 24.96173249 -5.6594498 24 0 24 C0 16.08 0 8.16 0 0 Z " fill="#7EC3B1" transform="translate(617,381)"/>
<path d="M0 0 C4.0712813 1.50788196 7.01730884 3.03461768 9 7 C8.7388903 11.91054687 6.3136748 14.2373244 3 17.6875 C-0.39569785 21.06219385 -0.39569785 21.06219385 -3 25 C2.05650106 24.29217278 2.05650106 24.29217278 5.625 20.86328125 C6.6076377 19.23322861 7.54990486 17.57798911 8.4453125 15.8984375 C10 14 10 14 12.6171875 13.6640625 C15 14 15 14 16 15 C16.39979813 19.07794091 16.28134034 21.45896089 14.375 25.125 C11.19149447 28.97871722 7.31214621 33.51898292 2.1171875 34.2734375 C-4.2176359 34.56038072 -8.13044268 33.04327497 -13 29 C-17.95487881 23.66397667 -18.45619303 19.11011003 -18.421875 12.0234375 C-17.77547548 7.39090759 -15.55111691 4.8858225 -12 2 C-7.94248454 -0.70501031 -4.76104122 -0.52900458 0 0 Z " fill="#3288B9" transform="translate(739,629)"/>
<path d="M0 0 C2.5625 0.1875 2.5625 0.1875 4.5625 2.1875 C4.6875 4.8125 4.6875 4.8125 4.5625 7.1875 C5.14257812 7.14109375 5.72265625 7.0946875 6.3203125 7.046875 C11.9529175 6.78662262 15.15169824 7.31460089 19.5625 11.1875 C21.87352736 14.91644853 21.75457804 17.52624572 21.16357422 21.76220703 C20.11203629 26.00508996 17.94414837 29.45924935 15.625 33.125 C15.16931641 33.87845703 14.71363281 34.63191406 14.24414062 35.40820312 C12.49515308 38.26855317 10.94073129 40.80926871 8.5625 43.1875 C5.4375 42.8125 5.4375 42.8125 2.5625 42.1875 C1.49921574 37.83415815 1.30419097 35.74564292 3.21484375 31.6171875 C3.95785817 30.42047401 4.72012949 29.23552838 5.5 28.0625 C9.16660891 22.59944339 9.16660891 22.59944339 9.5625 16.1875 C8.40647498 14.83321921 8.40647498 14.83321921 5.296875 14.69921875 C1.32718437 14.79622577 1.32718437 14.79622577 -0.984375 18.14453125 C-1.74455764 19.4145925 -2.47835388 20.70075214 -3.1875 22 C-8.07162301 30.4246897 -8.07162301 30.4246897 -10.4375 32.1875 C-13.77942692 31.94296876 -15.04293557 31.58206443 -17.4375 29.1875 C-17.12843296 24.72827143 -15.81937118 21.61850193 -13.53125 17.82421875 C-12.66306641 16.37112305 -12.66306641 16.37112305 -11.77734375 14.88867188 C-11.17019531 13.89416016 -10.56304687 12.89964844 -9.9375 11.875 C-9.33035156 10.86115234 -8.72320312 9.84730469 -8.09765625 8.80273438 C-2.93902485 0.22607883 -2.93902485 0.22607883 0 0 Z " fill="#318AB9" transform="translate(350.4375,673.8125)"/>
<path d="M0 0 C8.77763243 1.43633985 15.19753947 13.00115812 20.4375 19.5625 C21.18902344 20.47 21.94054687 21.3775 22.71484375 22.3125 C23.78412109 23.611875 23.78412109 23.611875 24.875 24.9375 C25.51308594 25.70835937 26.15117188 26.47921875 26.80859375 27.2734375 C29.86229422 31.56472881 30.9849873 35.30662188 30.4375 40.5625 C29.3125 43.375 29.3125 43.375 27.4375 45.5625 C24.25 46.375 24.25 46.375 21.4375 46.5625 C18.95099177 42.83273766 19.52563218 41.65352126 20.34375 37.5 C20.64587455 35.23127429 20.64587455 35.23127429 18.4375 32.5625 C16.15737286 31.99396819 16.15737286 31.99396819 13.4921875 31.90234375 C12.49703125 31.83080078 11.501875 31.75925781 10.4765625 31.68554688 C9.43242188 31.62431641 8.38828125 31.56308594 7.3125 31.5 C0.44812157 31.0623092 -5.93965698 30.47629516 -12.5625 28.5625 C-13.25 25.75 -13.25 25.75 -13.5625 22.5625 C-12.3984375 20.84765625 -12.3984375 20.84765625 -10.5625 19.5625 C-8.21484375 19.453125 -8.21484375 19.453125 -5.5 19.8125 C-4.53320312 19.92980469 -3.56640625 20.04710937 -2.5703125 20.16796875 C-1.57773437 20.29816406 -0.58515625 20.42835938 0.4375 20.5625 C2.33272581 20.75604428 4.22853521 20.94399837 6.125 21.125 C7.56255197 21.27032018 9.00007278 21.41595102 10.4375 21.5625 C9.94121094 21.15 9.44492187 20.7375 8.93359375 20.3125 C5.2474506 17.1789286 1.69571402 13.95906366 -1.625 10.4375 C-2.21410156 9.81617188 -2.80320312 9.19484375 -3.41015625 8.5546875 C-4.5625 6.5625 -4.5625 6.5625 -4.30859375 3.8828125 C-3.30119671 0.74986044 -3.25571246 0.71466859 0 0 Z " fill="#358AB8" transform="translate(780.5625,553.4375)"/>
<path d="M0 0 C4.46061418 2.31608813 6.76537078 4.54003063 9 9 C9.37231445 11.6472168 9.37231445 11.6472168 9.36328125 14.44921875 C9.36263672 15.46177734 9.36199219 16.47433594 9.36132812 17.51757812 C9.34521484 18.56365234 9.32910156 19.60972656 9.3125 20.6875 C9.31733398 22.27401367 9.31733398 22.27401367 9.32226562 23.89257812 C9.26715834 31.73284166 9.26715834 31.73284166 7 34 C4 34.25 4 34.25 1 34 C-1.43846521 31.56153479 -1.27661603 30.81673975 -1.37890625 27.46484375 C-1.43014648 26.12776367 -1.43014648 26.12776367 -1.48242188 24.76367188 C-1.50884766 23.83103516 -1.53527344 22.89839844 -1.5625 21.9375 C-1.62218611 20.09231018 -1.68577463 18.24724103 -1.75390625 16.40234375 C-1.77783447 15.58241943 -1.8017627 14.76249512 -1.82641602 13.91772461 C-1.7943179 11.99218738 -1.7943179 11.99218738 -3 11 C-6.5 10.83333333 -6.5 10.83333333 -10 11 C-11.57236413 12.57236413 -11.16385407 14.18623138 -11.2109375 16.3671875 C-11.23929688 17.25277344 -11.26765625 18.13835938 -11.296875 19.05078125 C-11.34873684 20.92558664 -11.3930734 22.80061611 -11.4296875 24.67578125 C-11.47609375 26.00802734 -11.47609375 26.00802734 -11.5234375 27.3671875 C-11.54325684 28.18300293 -11.56307617 28.99881836 -11.58349609 29.83935547 C-12.0931733 32.48334332 -12.86980946 33.392947 -15 35 C-17.5625 35.3125 -17.5625 35.3125 -20 35 C-22 33 -22 33 -22.24291992 29.94311523 C-22.23675659 28.0202771 -22.23675659 28.0202771 -22.23046875 26.05859375 C-22.23001053 25.37571793 -22.22955231 24.6928421 -22.2290802 23.98927307 C-22.22605891 22.54597231 -22.21817622 21.10267478 -22.20581055 19.65942383 C-22.1875433 17.44275447 -22.18530093 15.22650242 -22.18554688 13.00976562 C-22.14742468 2.14742468 -22.14742468 2.14742468 -21 1 C-19.00041636 0.95919217 -16.99954746 0.95745644 -15 1 C-14.67 2.32 -14.34 3.64 -14 5 C-12.4840625 3.7625 -12.4840625 3.7625 -10.9375 2.5 C-7.17100017 -0.16540613 -4.66294134 -0.76302676 0 0 Z " fill="#B0D190" transform="translate(530,723)"/>
<path d="M0 0 C2.4375 1.5 2.4375 1.5 4 3 C3.125 7.875 3.125 7.875 2 9 C-0.33157492 9.34541851 -2.66508361 9.67794257 -5 10 C-5.99 10.33 -6.98 10.66 -8 11 C-8.28486924 16.59824524 -8.28486924 16.59824524 -6.875 21.9375 C-5.0865018 24.21144569 -5.0865018 24.21144569 -2.125 25.125 C2.14912653 24.95403494 3.08819794 22.98459711 6 20 C9.25 19.625 9.25 19.625 12 20 C13 21 13 21 13.3125 23.75 C12.9217263 27.81404644 11.90478908 29.17165274 9 32 C3.96967335 35.47332078 -1.07131818 35.86902502 -7 35 C-12.21303507 32.39348247 -15.38275216 28.83018371 -18.25 23.8125 C-19.74529749 18.2051344 -19.91159826 13.01311283 -17.5 7.6875 C-12.5178815 2.33172262 -7.59512667 -1.16848103 0 0 Z " fill="#3186B6" transform="translate(654,690)"/>
<path d="M0 0 C3.8125 0.125 3.8125 0.125 7 1 C7.80078125 3.5859375 7.80078125 3.5859375 8 7 C6.48289852 9.50124915 5.07556621 11.44250151 3.1875 13.625 C2.69282227 14.22820068 2.19814453 14.83140137 1.68847656 15.45288086 C-0.81393251 18.48862283 -3.39237371 21.45341721 -5.99609375 24.40234375 C-6.45975342 24.93585449 -6.92341309 25.46936523 -7.40112305 26.01904297 C-8.68362112 27.48654574 -9.98967296 28.93336534 -11.296875 30.37890625 C-13.28047881 32.85472571 -13.28047881 32.85472571 -12.80859375 35.671875 C-12.40833984 36.82429687 -12.40833984 36.82429687 -12 38 C-11.3125 40.6875 -11.3125 40.6875 -11 43 C-13 45 -13 45 -15.8125 45.375 C-19.74758325 44.91204903 -21.22368748 43.77631252 -24 41 C-25.79484897 38.55247867 -26 37.2990331 -26 34.25 C-23.67482788 26.6931906 -16.9276852 20.38701077 -11.9375 14.375 C-11.33873047 13.65054688 -10.73996094 12.92609375 -10.12304688 12.1796875 C-8.9572086 10.76995535 -7.78751887 9.36339716 -6.61352539 7.96044922 C-5.58070519 6.70556251 -4.56957649 5.43230227 -3.58764648 4.13720703 C-2.3046875 2.46875 -2.3046875 2.46875 0 0 Z " fill="#2F8ABA" transform="translate(324,639)"/>
<path d="M0 0 C0.95132813 0.38671875 0.95132813 0.38671875 1.921875 0.78125 C4.18701013 1.97724135 5.46434326 2.93795667 7 5 C8.09352797 9.22042688 8.0989729 12.78062736 7 17 C4.07093697 20.87438411 0.64668333 22.58832917 -4 23.75 C-8.6537944 22.5865514 -12.05569152 20.8684345 -15 17 C-16.23023951 12.73206009 -16.27293767 9.26056306 -15 5 C-11.02823998 0.33084315 -5.94774688 -2.45667806 0 0 Z " fill="#F9FAF8" transform="translate(516,302)"/>
<path d="M0 0 C5.56818182 0.56818182 5.56818182 0.56818182 7 2 C7.7116553 6.2633424 6.83940721 8.65202303 4.515625 12.12890625 C3.44140039 13.61721004 2.35231639 15.09488109 1.25 16.5625 C0.71117187 17.30435547 0.17234375 18.04621094 -0.3828125 18.81054688 C-1.90124444 20.89005794 -3.44692257 22.94631132 -5 25 C-5.72445313 25.99 -6.44890625 26.98 -7.1953125 28 C-9 30 -9 30 -12.125 30.4375 C-15 30 -15 30 -17 28 C-17.13769247 20.92260711 -13.25105578 16.58820473 -9.0625 11.1875 C-8.09280273 9.90069336 -8.09280273 9.90069336 -7.10351562 8.58789062 C-2.46243405 2.46243405 -2.46243405 2.46243405 0 0 Z " fill="#318BBB" transform="translate(333,664)"/>
<path d="M0 0 C4.16035626 1.08169263 5.43045297 2.95586801 7.80078125 6.43359375 C9.82069849 10.06229463 11.06833928 13.80831202 12.125 17.8125 C10.805 18.1425 9.485 18.4725 8.125 18.8125 C7.84785156 18.10222656 7.57070313 17.39195312 7.28515625 16.66015625 C6.92292969 15.74105469 6.56070313 14.82195312 6.1875 13.875 C5.82785156 12.95847656 5.46820312 12.04195313 5.09765625 11.09765625 C4.3253782 8.88831467 4.3253782 8.88831467 3.125 7.8125 C1.12541636 7.77169217 -0.87545254 7.76995644 -2.875 7.8125 C-3.69337442 9.22578129 -4.50446219 10.64328346 -5.3125 12.0625 C-5.76496094 12.85140625 -6.21742188 13.6403125 -6.68359375 14.453125 C-7.76811602 16.60083468 -8.40648716 18.46455061 -8.875 20.8125 C-7.555 21.4725 -6.235 22.1325 -4.875 22.8125 C-4.875 24.8125 -4.875 24.8125 -6.875 26.9375 C-7.535 27.55625 -8.195 28.175 -8.875 28.8125 C-8.545 29.4725 -8.215 30.1325 -7.875 30.8125 C-8.535 31.1425 -9.195 31.4725 -9.875 31.8125 C-10.3433265 34.39855332 -10.3433265 34.39855332 -10.5 37.375 C-10.57476562 38.38691406 -10.64953125 39.39882813 -10.7265625 40.44140625 C-10.77554687 41.22386719 -10.82453125 42.00632812 -10.875 42.8125 C-11.205 42.8125 -11.535 42.8125 -11.875 42.8125 C-11.875 39.5125 -11.875 36.2125 -11.875 32.8125 C-12.535 32.8125 -13.195 32.8125 -13.875 32.8125 C-13.875 35.4525 -13.875 38.0925 -13.875 40.8125 C-15.195 40.1525 -16.515 39.4925 -17.875 38.8125 C-17.875 37.8225 -17.875 36.8325 -17.875 35.8125 C-18.865 35.4825 -19.855 35.1525 -20.875 34.8125 C-19.451875 33.884375 -19.451875 33.884375 -18 32.9375 C-13.66534663 29.41048252 -13.58587317 25.14404877 -12.875 19.8125 C-16.175 19.4825 -19.475 19.1525 -22.875 18.8125 C-22.875 17.8225 -22.875 16.8325 -22.875 15.8125 C-19.245 15.8125 -15.615 15.8125 -11.875 15.8125 C-11.1325 14.265625 -10.39 12.71875 -9.625 11.125 C-4.65810213 1.31642017 -4.65810213 1.31642017 0 0 Z " fill="#61B3C7" transform="translate(511.875,275.1875)"/>
<path d="M0 0 C3.92569359 1.64046655 4.96875609 3.56562431 6.91796875 7.33203125 C8.00445075 9.2780514 8.00445075 9.2780514 10.75 10.625 C11.4925 11.07875 12.235 11.5325 13 12 C13.4375 14.5625 13.4375 14.5625 13 17 C11 19 11 19 7.375 19.125 C6.26125 19.08375 5.1475 19.0425 4 19 C4 18.01 4 17.02 4 16 C3.28972656 16.01160156 2.57945312 16.02320313 1.84765625 16.03515625 C0.92855469 16.04417969 0.00945313 16.05320312 -0.9375 16.0625 C-1.85402344 16.07410156 -2.77054688 16.08570313 -3.71484375 16.09765625 C-6 16 -6 16 -7 15 C-7.57457908 11.8985788 -7.65275822 9.09040222 -7 6 C-4.97983751 3.50509932 -2.68169783 1.7444718 0 0 Z " fill="#F3F8F7" transform="translate(532,316)"/>
<path d="M0 0 C0.33 0.33 0.66 0.66 1 1 C0.71269945 3.33944736 0.38063221 5.6739143 0 8 C-0.99 8 -1.98 8 -3 8 C-3.2475 8.86625 -3.495 9.7325 -3.75 10.625 C-5.06778613 14.18302254 -6.80186822 16.9226155 -9 20 C-12.45506592 18.75233731 -15.319556 17.54415024 -18 15 C-18.390625 12.51953125 -18.390625 12.51953125 -18.25 9.8125 C-18.21390625 8.91144531 -18.1778125 8.01039063 -18.140625 7.08203125 C-18.09421875 6.39496094 -18.0478125 5.70789063 -18 5 C-14.78548731 3.39274365 -11.56387464 3.94251815 -8 4 C-7.87625 3.360625 -7.7525 2.72125 -7.625 2.0625 C-7.41875 1.381875 -7.2125 0.70125 -7 0 C-4.31633121 -1.3418344 -2.84719317 -0.73004953 0 0 Z " fill="#F7FBFB" transform="translate(543,290)"/>
<path d="M0 0 C3.625 0.375 3.625 0.375 7 1 C7 1.99 7 2.98 7 4 C10.3 4.33 13.6 4.66 17 5 C16.76038922 13.98540442 16.76038922 13.98540442 14.66796875 16.77734375 C10.82880435 20 10.82880435 20 8 20 C6.7109375 18.3203125 6.7109375 18.3203125 5.375 16.125 C4.92898438 15.40570313 4.48296875 14.68640625 4.0234375 13.9453125 C3 12 3 12 3 10 C2.360625 9.855625 1.72125 9.71125 1.0625 9.5625 C-1 9 -1 9 -2 8 C-2.1875 5.0625 -2.1875 5.0625 -2 2 C-1.34 1.34 -0.68 0.68 0 0 Z " fill="#FAFCFC" transform="translate(482,290)"/>
<path d="M0 0 C3.86955059 0.85178787 5.64214121 1.6664755 8 5 C8.63164009 8.32524574 8.87102552 11.62086857 9 15 C6.39820337 16.30089831 4.4030812 16.16840078 1.5 16.1875 C0.5203125 16.20167969 -0.459375 16.21585937 -1.46875 16.23046875 C-4 16 -4 16 -6 14 C-6.63086132 10.68797809 -6.44055229 8.71205545 -4.65625 5.828125 C-3.15691638 3.83372839 -1.61884329 1.89828647 0 0 Z " fill="#F6FBFB" transform="translate(490,316)"/>
<path d="M0 0 C3.3125 0.1875 3.3125 0.1875 7 1 C9.36455193 3.66965541 9.92514362 5.48669909 10.4375 9 C9.88368208 12.79760862 8.81476088 14.41346297 6 17 C3.4375 17.5 3.4375 17.5 1 17 C-1.5048111 15.12139167 -1.98700625 14.03898126 -3 11 C-3.45528455 4.7398374 -3.45528455 4.7398374 -1.5 1.5625 C-1.005 1.046875 -0.51 0.53125 0 0 Z " fill="#F9FCF7" transform="translate(557,729)"/>
<path d="M0 0 C2.98814708 2.36220106 4.79141108 4.87883453 5.5 8.6875 C5 11 5 11 3.875 12.8125 C1.04051261 14.60767534 -0.70930929 14.52651051 -4 14 C-7.59064902 11.36685739 -8.81170101 9.68258383 -10 5.375 C-10 2 -10 2 -9 0 C-5.65990607 -1.67004696 -3.51628157 -1.03063425 0 0 Z " fill="#EDF6F7" transform="translate(712,664)"/>
<path d="M0 0 C4.11767384 1.17647824 5.0705299 3.15278662 7.1796875 6.734375 C8.0625 8.875 8.0625 8.875 8.0625 12.875 C2.80860052 15.92959272 2.80860052 15.92959272 -0.5 15.6875 C-3.02703882 14.84515373 -5.48906967 13.92432728 -7.9375 12.875 C-7.38754802 7.10050421 -6.0212725 1.79357053 0 0 Z " fill="#F6FBFA" transform="translate(511.9375,281.125)"/>
<path d="M0 0 C1.72573724 3.45147449 1.35591016 7.21929399 1 11 C-0.0625 13.5625 -0.0625 13.5625 -2 15 C-5.5625 15.4375 -5.5625 15.4375 -9 15 C-11.68450733 10.973239 -11.67304618 7.72836241 -11 3 C-8.10580932 -1.86224034 -5.15007418 -1.36039695 0 0 Z " fill="#FBFDFA" transform="translate(489,732)"/>
<path d="M0 0 C3.04223469 2.71334445 3.91577775 4.67434063 4.9375 8.625 C5 12 5 12 3.9375 13.9375 C0.99930097 15.54877044 -0.69923877 15.59413702 -4 15 C-7.23459872 12.04667074 -8.81584306 10.17400048 -9.5 5.8125 C-9 3 -9 3 -7.875 1.125 C-5.04245644 -0.57452613 -3.23653093 -0.52841321 0 0 Z " fill="#EFF7F8" transform="translate(681,685)"/>
<path d="M0 0 C-0.53279282 4.52873901 -1.97457318 7.57649071 -5 11 C-8.75 11.375 -8.75 11.375 -12 11 C-12.69937202 9.5682384 -13.38412718 8.12932968 -14.0625 6.6875 C-14.44535156 5.88699219 -14.82820313 5.08648437 -15.22265625 4.26171875 C-16 2 -16 2 -15 -1 C-9.76602257 -3.99084425 -5.04602683 -2.91116933 0 0 Z " fill="#F7FCFB" transform="translate(520,333)"/>
<path d="M0 0 C0.99 0 1.98 0 3 0 C4.6432949 2.514331 5.94411129 5.13595663 7.3046875 7.8125 C7.86414063 8.534375 8.42359375 9.25625 9 10 C11.63223545 10.41790651 11.63223545 10.41790651 14 10 C13.67 11.32 13.34 12.64 13 14 C13.99 14.66 14.98 15.32 16 16 C16 13.36 16 10.72 16 8 C16.66 8 17.32 8 18 8 C18.33 11.63 18.66 15.26 19 19 C17.35 19.33 15.7 19.66 14 20 C12.97980427 19.0206121 11.97850195 18.02104551 11 17 C9.03891707 16.98715597 9.03891707 16.98715597 7 18 C5.03073907 20.29615898 5.03073907 20.29615898 3.3125 23.0625 C2.22658789 24.72043434 1.12719743 26.36985358 0 28 C-0.33 28 -0.66 28 -1 28 C-0.66808794 22.57876974 0.48331486 19.7914118 4.0390625 15.67578125 C5.19919487 14.03622181 5.19919487 14.03622181 4.77734375 12.05078125 C3.96153645 9.8985258 3.01593104 7.90817107 1.9375 5.875 C0 2.22064057 0 2.22064057 0 0 Z " fill="#5DB5C9" transform="translate(482,300)"/>
<path d="M0 0 C1.21236328 0.01353516 1.21236328 0.01353516 2.44921875 0.02734375 C3.37154297 0.04474609 3.37154297 0.04474609 4.3125 0.0625 C4.3125 1.0525 4.3125 2.0425 4.3125 3.0625 C3.54164063 3.18367188 2.77078125 3.30484375 1.9765625 3.4296875 C0.97367188 3.59726562 -0.02921875 3.76484375 -1.0625 3.9375 C-2.06023438 4.09992188 -3.05796875 4.26234375 -4.0859375 4.4296875 C-6.8300115 4.8583802 -6.8300115 4.8583802 -8.6875 7.0625 C-9.368125 7.206875 -10.04875 7.35125 -10.75 7.5 C-11.389375 7.685625 -12.02875 7.87125 -12.6875 8.0625 C-13.0175 9.0525 -13.3475 10.0425 -13.6875 11.0625 C-14.739375 11.000625 -15.79125 10.93875 -16.875 10.875 C-20.91571068 11.07372348 -22.37560207 11.94656521 -25.6875 14.0625 C-26.6775 13.7325 -27.6675 13.4025 -28.6875 13.0625 C-27.3125 11.0625 -27.3125 11.0625 -25.6875 9.0625 C-25.0275 9.0625 -24.3675 9.0625 -23.6875 9.0625 C-23.6875 8.4025 -23.6875 7.7425 -23.6875 7.0625 C-25.3375 6.7325 -26.9875 6.4025 -28.6875 6.0625 C-28.3575 4.4125 -28.0275 2.7625 -27.6875 1.0625 C-27.3575 1.7225 -27.0275 2.3825 -26.6875 3.0625 C-24.36899993 3.67682869 -24.36899993 3.67682869 -21.6875 4.0625 C-20.945 4.330625 -20.2025 4.59875 -19.4375 4.875 C-15.6477234 5.13339386 -13.1387449 3.71276628 -9.7734375 2.0703125 C-6.3656553 0.42385593 -3.73656504 -0.05415312 0 0 Z " fill="#5DB5CB" transform="translate(530.6875,290.9375)"/>
<path d="M0 0 C0.86625 0.495 1.7325 0.99 2.625 1.5 C6.20829215 3.09257429 8.13998002 3.49276851 12 3 C14.81780534 1.61114752 14.81780534 1.61114752 17 0 C17 0.99 17 1.98 17 3 C17.66 3 18.32 3 19 3 C19.1875 5.875 19.1875 5.875 19 9 C15.66288694 11.22474204 15.27627276 11.16998054 11.5625 10.5625 C8.23651116 10.02163976 8.23651116 10.02163976 4.96484375 10.58984375 C3 11 3 11 -1 9 C-0.67 6.03 -0.34 3.06 0 0 Z " fill="#6EBFCE" transform="translate(503,321)"/>
<path d="M0 0 C3.5625 0.3125 3.5625 0.3125 5.5 1.4375 C7.09240283 4.24762264 7.01569325 6.14014724 6.5625 9.3125 C4.9375 11.75 4.9375 11.75 2.5625 13.3125 C-0.95109068 13.3125 -2.71278132 12.9437066 -5.375 10.625 C-6.82300221 7.47346578 -6.367426 5.60300737 -5.4375 2.3125 C-3.4375 0.3125 -3.4375 0.3125 0 0 Z " fill="#FCBE65" transform="translate(511.4375,306.6875)"/>
<path d="M0 0 C0.33 0 0.66 0 1 0 C1 3.3 1 6.6 1 10 C2.32 10.66 3.64 11.32 5 12 C6.75 13.625 6.75 13.625 8 15 C7.01 15 6.02 15 5 15 C5.33 16.32 5.66 17.64 6 19 C4.1875 20.0625 4.1875 20.0625 2 21 C1.01 20.67 0.02 20.34 -1 20 C-1.04125 18.7625 -1.0825 17.525 -1.125 16.25 C-1.56785827 12.40735288 -1.82259588 12.14481969 -5.0625 9.5 C-6.031875 9.005 -7.00125 8.51 -8 8 C-7.67 6.35 -7.34 4.7 -7 3 C-5.5459375 2.5359375 -5.5459375 2.5359375 -4.0625 2.0625 C-1.15934208 1.30476658 -1.15934208 1.30476658 0 0 Z " fill="#68BECB" transform="translate(524,295)"/>
<path d="M0 0 C2 3 2 3 1.8125 6.0625 C1 9 1 9 -2 11 C-5.0625 10.8125 -5.0625 10.8125 -8 10 C-10.15502531 6.76746204 -10.46856135 5.74849077 -10 2 C-7.59684073 -2.24086929 -4.21511384 -1.07293807 0 0 Z " fill="#398DBD" transform="translate(348,652)"/>
<path d="M0 0 C1.65 0.33 3.3 0.66 5 1 C5 3 5 3 3 5.125 C2.34 5.74375 1.68 6.3625 1 7 C1.33 7.66 1.66 8.32 2 9 C1.01 9.495 1.01 9.495 0 10 C-0.4683265 12.58605332 -0.4683265 12.58605332 -0.625 15.5625 C-0.69976562 16.57441406 -0.77453125 17.58632813 -0.8515625 18.62890625 C-0.90054687 19.41136719 -0.94953125 20.19382812 -1 21 C-1.33 21 -1.66 21 -2 21 C-2 17.7 -2 14.4 -2 11 C-2.66 11 -3.32 11 -4 11 C-4 13.64 -4 16.28 -4 19 C-5.32 18.34 -6.64 17.68 -8 17 C-8 16.01 -8 15.02 -8 14 C-8.99 13.67 -9.98 13.34 -11 13 C-9.5459375 11.948125 -9.5459375 11.948125 -8.0625 10.875 C-5.44842775 8.72838538 -5.03741594 8.14164606 -4.125 4.6875 C-4.08375 3.800625 -4.0425 2.91375 -4 2 C-2.68 2.33 -1.36 2.66 0 3 C0 2.01 0 1.02 0 0 Z " fill="#6BB9CB" transform="translate(502,297)"/>
<path d="M0 0 C4.24723468 0.99934934 5.46242099 2.84857174 7.86328125 6.37109375 C9.88319849 9.99979463 11.13083928 13.74581202 12.1875 17.75 C10.8675 18.08 9.5475 18.41 8.1875 18.75 C7.77177734 17.68458984 7.77177734 17.68458984 7.34765625 16.59765625 C6.98542969 15.67855469 6.62320313 14.75945312 6.25 13.8125 C5.89035156 12.89597656 5.53070312 11.97945313 5.16015625 11.03515625 C4.3878782 8.82581467 4.3878782 8.82581467 3.1875 7.75 C0.85452567 7.70907063 -1.47955225 7.70758277 -3.8125 7.75 C-3.8125 7.09 -3.8125 6.43 -3.8125 5.75 C-4.4725 5.42 -5.1325 5.09 -5.8125 4.75 C-4.16024086 1.81265041 -3.30921356 0.88245695 0 0 Z " fill="#98CFA5" transform="translate(511.8125,275.25)"/>
<path d="M0 0 C0.66 0 1.32 0 2 0 C2 0.66 2 1.32 2 2 C2.66 2 3.32 2 4 2 C3.65310247 8.7645019 -0.31516866 14.31516866 -5 19 C-7.5 18.875 -7.5 18.875 -10 18 C-11.375 16.0625 -11.375 16.0625 -12 14 C-11.67 13.34 -11.34 12.68 -11 12 C-9.906875 11.938125 -8.81375 11.87625 -7.6875 11.8125 C-4.09910885 11.3924273 -4.09910885 11.3924273 -2.6484375 9.5234375 C-0.56639128 6.00343131 0 4.23316511 0 0 Z " fill="#A2D4BC" transform="translate(519,332)"/>
<path d="M0 0 C3.62819486 3.62819486 6.79441627 7.06171141 10 11 C9.67 11.66 9.34 12.32 9 13 C6.04179941 13.90591398 3.03989563 14.40058396 0 15 C0 10.05 0 5.1 0 0 Z " fill="#F1F8F9" transform="translate(609,708)"/>
<path d="M0 0 C0.99 0 1.98 0 3 0 C3 9.24 3 18.48 3 28 C2.01 28 1.02 28 0 28 C0 18.76 0 9.52 0 0 Z " fill="#6EBDCD" transform="translate(452,320)"/>
<path d="M0 0 C3.76314135 0.60914159 6.83503926 1.6879685 10.25 3.375 C11.55710937 4.00535156 11.55710937 4.00535156 12.890625 4.6484375 C15 6 15 6 16 9 C12.26037501 10.8698125 7.85530431 9.16280953 4 8 C1.375 6.125 1.375 6.125 0 4 C0 2.68 0 1.36 0 0 Z " fill="#E6F4F7" transform="translate(381,714)"/>
<path d="M0 0 C1.91796875 0.296875 1.91796875 0.296875 4.91796875 1.359375 C4.31082031 1.606875 3.70367188 1.854375 3.078125 2.109375 C0.54890621 3.57293741 -0.23559223 4.82979471 -1.64453125 7.359375 C-3.33927465 10.38213044 -4.07952075 11.35770134 -7.08203125 13.359375 C-9.76953125 13.484375 -9.76953125 13.484375 -12.08203125 13.359375 C-9.85550529 8.44293443 -5.69230675 0.982537 0 0 Z " fill="#E5F5F9" transform="translate(748.08203125,640.640625)"/>
<path d="M0 0 C3.625 0.375 3.625 0.375 7 1 C7.37010337 4.3309303 7.27461204 5.62731223 5.25 8.375 C3 10 3 10 0.8125 9.8125 C-1 9 -1 9 -2 8 C-2.1875 5.0625 -2.1875 5.0625 -2 2 C-1.34 1.34 -0.68 0.68 0 0 Z " fill="#FACB7F" transform="translate(482,290)"/>
<path d="M0 0 C0.33 0.33 0.66 0.66 1 1 C0.71269945 3.33944736 0.38063221 5.6739143 0 8 C-2.80362763 8.22732116 -4.46186517 8.34081872 -6.875 6.8125 C-8 5 -8 5 -7.8125 2.375 C-6.32175079 -1.98257461 -3.87638311 -0.99394439 0 0 Z " fill="#FCC47D" transform="translate(543,290)"/>
<path d="M0 0 C1.875 0.6875 1.875 0.6875 2.875 1.6875 C3.0625 4.125 3.0625 4.125 2.875 6.6875 C0.875 8.6875 0.875 8.6875 -1.6875 8.875 C-4.125 8.6875 -4.125 8.6875 -5.125 7.6875 C-5.375 4.75 -5.375 4.75 -5.125 1.6875 C-2.125 -0.3125 -2.125 -0.3125 0 0 Z " fill="#F9BB60" transform="translate(542.125,326.3125)"/>
<path d="M0 0 C5.625 -0.25 5.625 -0.25 9 2 C9.1875 5.125 9.1875 5.125 9 8 C7.5410574 7.52269162 6.08286504 7.04308958 4.625 6.5625 C3.81289063 6.29566406 3.00078125 6.02882813 2.1640625 5.75390625 C0 5 0 5 -2 4 C-1.34 2.68 -0.68 1.36 0 0 Z " fill="#E9F4F8" transform="translate(386,704)"/>
<path d="M0 0 C0 3 0 3 -1 6 C-2.64233398 7.18261719 -2.64233398 7.18261719 -4.74609375 8.296875 C-5.50083984 8.69777344 -6.25558594 9.09867188 -7.03320312 9.51171875 C-7.82662109 9.92035156 -8.62003906 10.32898438 -9.4375 10.75 C-10.22705078 11.17410156 -11.01660156 11.59820313 -11.83007812 12.03515625 C-16.21203767 14.32886739 -16.21203767 14.32886739 -18 15 C-18.66 14.67 -19.32 14.34 -20 14 C-17.60614464 12.22643924 -15.2100227 10.45609117 -12.8125 8.6875 C-12.13896484 8.18798828 -11.46542969 7.68847656 -10.77148438 7.17382812 C-7.2714087 4.5957236 -3.78489941 2.15335054 0 0 Z " fill="#7CCBDC" transform="translate(543,605)"/>
<path d="M0 0 C0 3 0 3 -1.53125 4.82421875 C-2.1809375 5.43910156 -2.830625 6.05398438 -3.5 6.6875 C-4.1496875 7.31011719 -4.799375 7.93273437 -5.46875 8.57421875 C-5.9740625 9.04472656 -6.479375 9.51523437 -7 10 C-7.66 9.67 -8.32 9.34 -9 9 C-9.36 3.6 -9.36 3.6 -7.875 1.125 C-5.21965017 -0.4682099 -3.03210482 -0.20214032 0 0 Z " fill="#EAF5FA" transform="translate(738,638)"/>
<path d="M0 0 C2.31 0 4.62 0 7 0 C7 2.64 7 5.28 7 8 C4.69 8 2.38 8 0 8 C0 5.36 0 2.72 0 0 Z " fill="#EBF6F4" transform="translate(407,484)"/>
<path d="M0 0 C2.31 0 4.62 0 7 0 C7 2.64 7 5.28 7 8 C4.69 8 2.38 8 0 8 C0 5.36 0 2.72 0 0 Z " fill="#F1F8F7" transform="translate(407,449)"/>
<path d="M0 0 C2.31 0 4.62 0 7 0 C7 2.64 7 5.28 7 8 C4.69 8 2.38 8 0 8 C0 5.36 0 2.72 0 0 Z " fill="#E9F4F7" transform="translate(437,443)"/>
<path d="M0 0 C2.31 0 4.62 0 7 0 C7 2.64 7 5.28 7 8 C4.69 8 2.38 8 0 8 C0 5.36 0 2.72 0 0 Z " fill="#F3F8FA" transform="translate(437,425)"/>
<path d="M0 0 C2.31 0 4.62 0 7 0 C7 2.64 7 5.28 7 8 C4.69 8 2.38 8 0 8 C0 5.36 0 2.72 0 0 Z " fill="#E2EEF3" transform="translate(535,420)"/>
<path d="M0 0 C2.31 0 4.62 0 7 0 C7 2.64 7 5.28 7 8 C4.69 8 2.38 8 0 8 C0 5.36 0 2.72 0 0 Z " fill="#F3F8FA" transform="translate(437,407)"/>
<path d="M0 0 C2.31 0 4.62 0 7 0 C7 2.64 7 5.28 7 8 C4.69 8 2.38 8 0 8 C0 5.36 0 2.72 0 0 Z " fill="#EDF7F6" transform="translate(585,398)"/>
<path d="M0 0 C0.99 0 1.98 0 3 0 C2.5867737 5.64742605 0.34437834 8.69710825 -3 13 C-3.66 13.99 -4.32 14.98 -5 16 C-5.99847557 12.92776747 -6.41392307 10.86300563 -4.98828125 7.890625 C-3.71098316 5.8850108 -2.37270566 3.94102328 -1 2 C-0.67 1.34 -0.34 0.68 0 0 Z " fill="#66BDD0" transform="translate(540,298)"/>
<path d="M0 0 C-2.01271818 4.42449945 -4.96522745 7.29650373 -8.375 10.6875 C-9.24125 11.57791992 -9.24125 11.57791992 -10.125 12.48632812 C-10.68960937 13.05158203 -11.25421875 13.61683594 -11.8359375 14.19921875 C-12.60236572 14.97011841 -12.60236572 14.97011841 -13.38427734 15.7565918 C-15.22940973 17.17654635 -16.72733945 17.59023148 -19 18 C-15.28245198 13.47865782 -11.35952636 9.22584239 -7.25 5.0625 C-6.76619873 4.56580811 -6.28239746 4.06911621 -5.78393555 3.55737305 C-2.23650798 0 -2.23650798 0 0 0 Z " fill="#328EB9" transform="translate(388,333)"/>
<path d="M0 0 C0.66 0.66 1.32 1.32 2 2 C1.67028521 5.29714793 1.3773161 6.6226839 -1 9 C-4.125 8.625 -4.125 8.625 -7 8 C-7.33 7.01 -7.66 6.02 -8 5 C-7.4225 4.731875 -6.845 4.46375 -6.25 4.1875 C-3.9674132 2.98280141 -2.0262058 1.59201885 0 0 Z " fill="#4595C0" transform="translate(637,726)"/>
<path d="M0 0 C2.31 0 4.62 0 7 0 C7 2.31 7 4.62 7 7 C4.69 7 2.38 7 0 7 C0 4.69 0 2.38 0 0 Z " fill="#FAFCFD" transform="translate(552,510)"/>
<path d="M0 0 C2.31 0 4.62 0 7 0 C7 2.31 7 4.62 7 7 C4.69 7 2.38 7 0 7 C0 4.69 0 2.38 0 0 Z " fill="#FCFDFB" transform="translate(470,503)"/>
<path d="M0 0 C2.31 0 4.62 0 7 0 C7 2.31 7 4.62 7 7 C4.69 7 2.38 7 0 7 C0 4.69 0 2.38 0 0 Z " fill="#FBFDFE" transform="translate(552,493)"/>
<path d="M0 0 C2.31 0 4.62 0 7 0 C7 2.31 7 4.62 7 7 C4.69 7 2.38 7 0 7 C0 4.69 0 2.38 0 0 Z " fill="#FAFCF9" transform="translate(485,486)"/>
<path d="M0 0 C2.31 0 4.62 0 7 0 C7 2.31 7 4.62 7 7 C4.69 7 2.38 7 0 7 C0 4.69 0 2.38 0 0 Z " fill="#FAFCF8" transform="translate(470,486)"/>
<path d="M0 0 C2.31 0 4.62 0 7 0 C7 2.31 7 4.62 7 7 C4.69 7 2.38 7 0 7 C0 4.69 0 2.38 0 0 Z " fill="#F4FBF8" transform="translate(407,467)"/>
<path d="M0 0 C2.31 0 4.62 0 7 0 C7 2.31 7 4.62 7 7 C4.69 7 2.38 7 0 7 C0 4.69 0 2.38 0 0 Z " fill="#F1F9F5" transform="translate(627,460)"/>
<path d="M0 0 C2.31 0 4.62 0 7 0 C7 2.31 7 4.62 7 7 C4.69 7 2.38 7 0 7 C0 4.69 0 2.38 0 0 Z " fill="#F1F9F6" transform="translate(627,444)"/>
<path d="M0 0 C2.31 0 4.62 0 7 0 C7 2.31 7 4.62 7 7 C4.69 7 2.38 7 0 7 C0 4.69 0 2.38 0 0 Z " fill="#F2F7F8" transform="translate(535,438)"/>
<path d="M0 0 C1.98 0.99 3.96 1.98 6 3 C5.67 5.64 5.34 8.28 5 11 C3.02 10.34 1.04 9.68 -1 9 C-0.67 6.03 -0.34 3.06 0 0 Z " fill="#9AD2DD" transform="translate(503,321)"/>
<path d="M0 0 C0.33 1.32 0.66 2.64 1 4 C0.34 3.67 -0.32 3.34 -1 3 C-0.67 2.01 -0.34 1.02 0 0 Z M-1 3 C-0.63076923 7.55384615 -0.63076923 7.55384615 -2.5 9.8125 C-2.995 10.204375 -3.49 10.59625 -4 11 C-6.0625 9.25 -6.0625 9.25 -8 7 C-7.875 4.8125 -7.875 4.8125 -7 3 C-4.50907189 1.75453595 -3.58919267 2.2232422 -1 3 Z " fill="#90D0D9" transform="translate(524,295)"/>
<path d="M0 0 C0.66 0 1.32 0 2 0 C2 0.66 2 1.32 2 2 C2.66 2 3.32 2 4 2 C3.49516338 6.34159496 2.68099266 9.49408652 0 13 C-0.99 13 -1.98 13 -3 13 C-2.57024157 10.42144939 -2.14005508 8.27187163 -0.9375 5.9375 C0.29037395 3.75862665 0.29037395 3.75862665 0 0 Z " fill="#7FC7B9" transform="translate(519,332)"/>
<path d="M0 0 C1.98 0 3.96 0 6 0 C6 2.31 6 4.62 6 7 C4.02 7 2.04 7 0 7 C0 4.69 0 2.38 0 0 Z " fill="#F7FDF9" transform="translate(586,382)"/>
<path d="M0 0 C0.99 0 1.98 0 3 0 C3.69699552 1.45381897 4.38233866 2.91322953 5.0625 4.375 C5.63677734 5.59316406 5.63677734 5.59316406 6.22265625 6.8359375 C6.47917969 7.55007813 6.73570312 8.26421875 7 9 C6.67 9.66 6.34 10.32 6 11 C5.01 11.33 4.02 11.66 3 12 C2.49166409 10.75336669 1.99368855 9.50250613 1.5 8.25 C1.2215625 7.55390625 0.943125 6.8578125 0.65625 6.140625 C0 4 0 4 0 0 Z " fill="#7ACCB7" transform="translate(517,282)"/>
<path d="M0 0 C3.96 0 7.92 0 12 0 C11.67 2.31 11.34 4.62 11 7 C10.67 6.01 10.34 5.02 10 4 C6.7 3.67 3.4 3.34 0 3 C0 2.01 0 1.02 0 0 Z " fill="#6BB7CE" transform="translate(489,291)"/>
<path d="M0 0 C1.98 0 3.96 0 6 0 C6 1.98 6 3.96 6 6 C4.02 6 2.04 6 0 6 C0 4.02 0 2.04 0 0 Z " fill="#FEFFFE" transform="translate(586,366)"/>
<path d="M0 0 C1.85625 0.061875 1.85625 0.061875 3.75 0.125 C3.75 0.455 3.75 0.785 3.75 1.125 C2.0175 1.4034375 2.0175 1.4034375 0.25 1.6875 C-5.0968288 2.97646766 -8.43472711 6.33002112 -12.25 10.125 C-12.91 9.795 -13.57 9.465 -14.25 9.125 C-13.3419838 7.99300647 -12.42316174 6.86967637 -11.5 5.75 C-10.98953125 5.12351562 -10.4790625 4.49703125 -9.953125 3.8515625 C-6.91066573 0.76723453 -4.28726255 -0.14290875 0 0 Z " fill="#489ABF" transform="translate(388.25,694.875)"/>
<path d="M0 0 C4 6 4 6 4 11 C1.54765115 10.01906046 0.2190732 9.31296172 -1.3125 7.125 C-2.12060322 4.62722642 -1.9212075 3.42863795 -1 1 C-0.67 0.67 -0.34 0.34 0 0 Z " fill="#6ABECE" transform="translate(504,335)"/>
<path d="M0 0 C1.32 0.33 2.64 0.66 4 1 C2.92492371 2.29854721 1.83956264 3.58858361 0.75 4.875 C0.14671875 5.59429688 -0.4565625 6.31359375 -1.078125 7.0546875 C-3 9 -3 9 -7 11 C-4.69 7.37 -2.38 3.74 0 0 Z " fill="#2785B4" transform="translate(749,643)"/>
<path d="M0 0 C1.04211409 3.12634226 0.99926113 4.04848841 0.25 7.125 C0.01023437 8.18074219 0.01023437 8.18074219 -0.234375 9.2578125 C-0.48703125 9.83273437 -0.7396875 10.40765625 -1 11 C-1.99 11.33 -2.98 11.66 -4 12 C-4 9.36 -4 6.72 -4 4 C-3.34 4 -2.68 4 -2 4 C-2 3.01 -2 2.02 -2 1 C-1.34 0.67 -0.68 0.34 0 0 Z " fill="#53ABC5" transform="translate(503,289)"/>
<path d="M0 0 C1.093125 0.226875 2.18625 0.45375 3.3125 0.6875 C2.714375 0.935 2.11625 1.1825 1.5 1.4375 C-0.97397521 2.85120012 -2.12120255 4.33805383 -3.6875 6.6875 C-4.6775 5.3675 -5.6675 4.0475 -6.6875 2.6875 C-4.58035839 -0.41123767 -3.86755884 -0.32775922 0 0 Z " fill="#D5E8F1" transform="translate(749.6875,641.3125)"/>
<path d="M0 0 C0.78375 0.04125 1.5675 0.0825 2.375 0.125 C1.385 0.455 0.395 0.785 -0.625 1.125 C-0.625 1.785 -0.625 2.445 -0.625 3.125 C-1.285 3.125 -1.945 3.125 -2.625 3.125 C-2.955 4.445 -3.285 5.765 -3.625 7.125 C-4.285 7.125 -4.945 7.125 -5.625 7.125 C-4.53409091 0.21590909 -4.53409091 0.21590909 0 0 Z " fill="#3D92B8" transform="translate(744.625,614.875)"/>
<path d="M0 0 C2.97 0 5.94 0 9 0 C9 0.99 9 1.98 9 3 C6.1875 3.1875 6.1875 3.1875 3 3 C2.01 2.01 1.02 1.02 0 0 Z " fill="#6DB3CD" transform="translate(526,291)"/>
<path d="M0 0 C1.65 0.33 3.3 0.66 5 1 C3.6875 3.5 3.6875 3.5 2 6 C1.01 6 0.02 6 -1 6 C-0.67 4.02 -0.34 2.04 0 0 Z " fill="#61B9CC" transform="translate(508,325)"/>
<path d="M0 0 C0.66 0.33 1.32 0.66 2 1 C1.67 3.97 1.34 6.94 1 10 C0.01 9.01 -0.98 8.02 -2 7 C-2 6.34 -2 5.68 -2 5 C-1.34 5 -0.68 5 0 5 C0 3.35 0 1.7 0 0 Z " fill="#5EB9C4" transform="translate(523,298)"/>
<path d="M0 0 C1.32 0.33 2.64 0.66 4 1 C0.535 3.97 0.535 3.97 -3 7 C-3.66 6.67 -4.32 6.34 -5 6 C-3.35 4.02 -1.7 2.04 0 0 Z " fill="#3C98BD" transform="translate(333,664)"/>
<path d="M0 0 C0 1.65 0 3.3 0 5 C-1.65 5 -3.3 5 -5 5 C-5.33 4.34 -5.66 3.68 -6 3 C-1.125 0 -1.125 0 0 0 Z " fill="#E4F3F5" transform="translate(522,324)"/>
<path d="M0 0 C1.485 0.99 1.485 0.99 3 2 C2.67 3.65 2.34 5.3 2 7 C1.67 6.34 1.34 5.68 1 5 C0.34 5 -0.32 5 -1 5 C-0.67 3.35 -0.34 1.7 0 0 Z " fill="#4590BE" transform="translate(655,691)"/>
<path d="M0 0 C1.68496298 0.96885372 3.35178756 1.96986723 5 3 C5 3.33 5 3.66 5 4 C1.37 3.67 -2.26 3.34 -6 3 C-6 2.67 -6 2.34 -6 2 C-4.02 2 -2.04 2 0 2 C0 1.34 0 0.68 0 0 Z " fill="#BCDAE5" transform="translate(787,572)"/>
<path d="M0 0 C1.98 0.99 1.98 0.99 4 2 C3.34 3.32 2.68 4.64 2 6 C1.34 6 0.68 6 0 6 C0 4.02 0 2.04 0 0 Z " fill="#E3F3F6" transform="translate(526,310)"/>
<path d="M0 0 C0.66 0 1.32 0 2 0 C2 1.98 2 3.96 2 6 C0.68 5.34 -0.64 4.68 -2 4 C-1.34 2.68 -0.68 1.36 0 0 Z " fill="#DEF0F3" transform="translate(496,310)"/>
<path d="M0 0 C2.475 0.495 2.475 0.495 5 1 C5 1.66 5 2.32 5 3 C3.35 3.66 1.7 4.32 0 5 C0 3.35 0 1.7 0 0 Z " fill="#DFEEF3" transform="translate(502,297)"/>
<path d="M0 0 C1.485 0.99 1.485 0.99 3 2 C2.625 4.4375 2.625 4.4375 2 7 C1.01 7.495 1.01 7.495 0 8 C0 5.36 0 2.72 0 0 Z " fill="#5097BA" transform="translate(766,630)"/>
<path d="M0 0 C0.33 0.66 0.66 1.32 1 2 C1.66 2 2.32 2 3 2 C3.33 2.99 3.66 3.98 4 5 C4.99 5.66 5.98 6.32 7 7 C4.03 6.505 4.03 6.505 1 6 C0.67 4.02 0.34 2.04 0 0 Z " fill="#3F96BE" transform="translate(767,576)"/>
</svg>
