<svg version="1.1" id="Layer_1" xmlns="http://www.w3.org/2000/svg" xmlns:xlink="http://www.w3.org/1999/xlink" x="0px" y="0px"
	 width="100%" viewBox="0 0 1024 1024" enable-background="new 0 0 1024 1024" xml:space="preserve">
<path fill="#000000" opacity="1.000000" stroke="none" 
	d="
M467.955475,383.069489 
	C491.841400,414.024872 515.508545,444.699219 539.427429,475.699890 
	C541.401672,473.198303 540.805115,470.976074 540.807251,468.940430 
	C540.843750,434.955536 540.924438,400.970032 540.725281,366.986267 
	C540.695679,361.931885 542.187500,360.393799 547.251221,360.470428 
	C559.067139,360.649323 570.895569,360.299896 582.712524,359.947479 
	C587.002930,359.819519 588.442200,361.297516 588.433289,365.716248 
	C588.306580,428.688416 588.306152,491.661011 588.434814,554.633179 
	C588.443909,559.105957 586.962830,560.403259 582.668091,560.298767 
	C572.511780,560.051514 562.342957,560.071350 552.184814,560.270203 
	C548.452332,560.343201 546.043091,559.017212 543.797180,556.084473 
	C516.058472,519.862244 488.223663,483.713531 460.367493,447.581482 
	C459.101166,445.938934 458.203278,443.818573 455.579102,442.920319 
	C454.318024,445.419373 454.366577,448.033417 454.460297,450.640320 
	C455.717834,485.611420 454.846039,520.594604 455.094238,555.571228 
	C455.118347,558.966858 453.843597,560.268616 450.362762,560.230591 
	C438.036560,560.095825 425.707001,560.132874 413.380249,560.257507 
	C409.904175,560.292603 408.457458,559.458313 408.467438,555.474182 
	C408.625641,492.335724 408.653503,429.196747 408.518219,366.058258 
	C408.508636,361.586456 409.731384,360.390198 414.109222,360.472229 
	C424.925903,360.674835 435.763214,361.071320 446.572937,360.201111 
	C449.621979,359.955658 451.560120,361.355377 453.270874,363.657806 
	C458.038757,370.074860 462.907654,376.416840 467.955475,383.069489 
z"/>
<path fill="#000000" opacity="1.000000" stroke="none" 
	d="
M742.869751,401.204346 
	C765.741272,454.028229 788.449097,506.507507 811.021973,558.674927 
	C808.989868,560.568359 807.421875,560.190430 805.976196,560.194946 
	C792.817261,560.236267 779.656250,560.115173 766.500183,560.320129 
	C762.720154,560.379028 760.847229,559.007446 759.544983,555.508850 
	C755.655762,545.060364 751.377197,534.757568 747.403870,524.339355 
	C746.235168,521.274902 744.486389,519.967346 741.103027,519.986572 
	C715.618408,520.130859 690.132751,520.173096 664.647888,520.098328 
	C660.927795,520.087402 658.892761,521.406677 657.570557,524.910156 
	C653.692810,535.185242 649.416016,545.309937 645.552124,555.589966 
	C644.239990,559.080750 642.368896,560.433655 638.557251,560.362488 
	C626.235291,560.132263 613.906311,560.298035 601.580200,560.254822 
	C599.626038,560.247986 597.575256,560.697876 595.289917,559.266296 
	C596.077576,554.795349 598.439148,550.746948 600.265625,546.577759 
	C626.651733,486.347778 652.864990,426.043335 678.355286,365.428162 
	C679.910095,361.730865 681.948059,360.490234 685.842346,360.541321 
	C697.664429,360.696472 709.492554,360.569244 721.315247,360.371094 
	C724.296936,360.321136 725.799866,361.480743 726.925537,364.153595 
	C732.094421,376.427429 737.430176,388.630981 742.869751,401.204346 
M708.785950,428.626007 
	C706.409912,424.236267 705.764648,418.964722 701.724487,414.079010 
	C692.599243,436.922089 683.854980,458.811462 675.067932,480.807800 
	C676.586426,481.328674 677.048828,481.625214 677.511963,481.626160 
	C693.145508,481.658325 708.779114,481.683258 724.412659,481.656281 
	C728.470520,481.649261 729.114746,479.679749 727.681458,476.125214 
	C721.404785,460.559540 715.260437,444.940552 708.785950,428.626007 
z"/>
<path fill="#000000" opacity="1.000000" stroke="none" 
	d="
M254.526367,552.612793 
	C245.499664,548.919128 237.281601,544.548218 229.690979,539.035034 
	C228.058334,537.849182 226.267700,536.744568 227.353882,534.208984 
	C232.313705,522.630432 237.258240,511.045319 242.079620,499.763611 
	C244.915253,499.523712 246.094879,501.178986 247.555771,502.171082 
	C268.481445,516.381897 291.133636,524.980469 316.868103,523.709351 
	C321.562897,523.477539 326.117218,522.588989 330.460846,520.814575 
	C336.595062,518.308655 340.821106,514.033142 341.558716,507.226929 
	C342.287750,500.499969 339.376709,495.174469 334.008392,491.311890 
	C327.556915,486.670044 320.055725,484.366119 312.513306,482.187866 
	C298.454376,478.127686 283.963379,475.501556 270.404236,469.784058 
	C257.089691,464.169647 245.135818,456.741943 238.529755,443.163055 
	C226.301666,418.028198 233.303268,377.960663 271.586853,363.769440 
	C288.131134,357.636658 305.184113,356.243286 322.679504,357.324829 
	C342.389618,358.543243 361.129059,363.119720 378.832428,371.859100 
	C385.783508,375.290588 385.849731,375.387878 383.095490,382.714966 
	C379.697906,391.753632 375.951630,400.664154 372.693939,409.751221 
	C371.184509,413.961731 369.495819,414.559723 365.445312,412.488434 
	C346.982758,403.047485 327.515228,397.153442 306.554352,397.342865 
	C300.828949,397.394592 295.300262,398.667389 290.258057,401.484833 
	C280.668152,406.843536 279.384125,418.327087 287.441467,425.813171 
	C292.367126,430.389587 298.533478,432.524353 304.737549,434.437042 
	C319.678711,439.043365 335.029877,442.286041 349.701721,447.789673 
	C362.849548,452.721619 375.107483,459.143616 382.839325,471.484497 
	C396.808960,493.781738 393.603912,532.270081 364.185211,550.085083 
	C352.807465,556.975037 340.417084,560.536194 327.454926,562.100952 
	C302.527893,565.109985 278.338806,561.575989 254.526367,552.612793 
z"/>
<path fill="#000000" opacity="1.000000" stroke="none" 
	d="
M294.315430,604.976074 
	C297.783203,604.511597 299.273102,605.286377 297.763306,608.733948 
	C293.224823,619.097412 288.936707,629.573486 284.241516,639.864441 
	C281.279816,646.355774 275.734863,648.762085 270.086731,646.599670 
	C268.218323,645.884399 266.067627,645.233154 266.861938,642.473022 
	C267.570770,640.009949 269.141296,639.916687 271.512451,640.414734 
	C277.485168,641.669556 280.777618,637.900208 278.430450,632.438660 
	C274.838165,624.080078 271.498383,615.580994 266.764862,607.154724 
	C262.429321,609.604797 259.649231,613.140564 256.546417,616.230652 
	C254.873322,617.896851 256.756561,619.293884 257.630005,620.560120 
	C260.905029,625.307556 264.276550,629.988403 268.190765,635.510925 
	C256.514618,638.053040 256.798096,625.914673 250.385849,622.848755 
	C246.689804,624.355957 244.582916,626.836426 244.927643,631.194275 
	C245.114792,633.559753 244.870804,636.100586 241.444046,636.030884 
	C238.024902,635.961365 238.050674,633.361450 238.046097,631.027954 
	C238.024216,619.873047 238.077103,608.717957 238.125000,597.563049 
	C238.134903,595.256104 238.432877,593.129028 241.549255,593.195984 
	C244.626709,593.262146 244.904068,595.456970 244.923813,597.707031 
	C244.978882,603.979553 244.942978,610.252869 244.942978,617.440735 
	C249.886749,614.261108 253.209671,610.868652 256.660583,607.636597 
	C262.802673,601.884033 272.854858,603.851746 276.134094,611.436279 
	C278.302948,616.452698 280.512054,621.451660 283.227386,627.656311 
	C285.962097,621.194031 288.235504,615.796631 290.531738,610.408997 
	C291.368256,608.446350 291.808807,606.218323 294.315430,604.976074 
z"/>
<path fill="#000000" opacity="1.000000" stroke="none" 
	d="
M787.278137,622.232971 
	C787.280273,625.529236 787.285339,628.358215 787.279785,631.187256 
	C787.275146,633.579590 787.419128,636.080872 783.890991,636.001953 
	C780.296387,635.921448 780.757141,633.246582 780.725098,630.969116 
	C780.668884,626.975952 780.658325,622.980957 780.709778,618.987793 
	C780.761353,614.981445 779.133606,612.098755 775.081421,611.339783 
	C770.923950,610.561157 768.031189,612.524536 766.381653,616.374512 
	C764.389771,621.023315 765.679810,625.914001 765.318237,630.682739 
	C765.137695,633.064026 765.956787,636.080627 761.947266,635.958801 
	C758.421143,635.851624 758.791992,633.164185 758.777893,630.876282 
	C758.733887,623.720947 758.673950,616.563660 758.796936,609.410095 
	C758.871582,605.071838 761.206299,603.735107 764.872314,605.963440 
	C765.936890,606.610474 766.537415,607.303894 767.842896,606.611084 
	C774.421631,603.119751 780.330505,604.609070 785.785828,609.490295 
	C790.170959,605.857666 794.816040,603.562988 800.530884,605.373169 
	C805.881775,607.068054 808.863708,610.561523 809.161316,616.316467 
	C809.436096,621.627747 809.253296,626.962891 809.264160,632.287537 
	C809.268250,634.297668 808.818970,635.952271 806.332031,636.050903 
	C803.744446,636.153564 802.759460,634.762146 802.757690,632.363281 
	C802.754578,628.203125 802.755371,624.042725 802.707458,619.882935 
	C802.640198,614.038879 800.262939,611.176575 795.509949,611.140747 
	C790.590027,611.103699 787.609192,614.224365 787.284912,619.769043 
	C787.246094,620.432495 787.277527,621.100098 787.278137,622.232971 
z"/>
<path fill="#000000" opacity="1.000000" stroke="none" 
	d="
M434.350861,616.615295 
	C432.188660,613.936646 430.236206,611.545776 428.283752,609.154907 
	C427.923950,609.266296 427.564148,609.377686 427.204346,609.489014 
	C427.204346,616.742676 427.221741,623.996399 427.189789,631.249939 
	C427.183350,632.717651 427.453400,634.358948 426.109009,635.436157 
	C424.985565,636.336304 423.578827,636.253174 422.276184,635.901489 
	C420.617798,635.453674 420.643494,634.038330 420.645874,632.668457 
	C420.665314,621.506042 420.665283,610.343628 420.696777,599.181213 
	C420.701416,597.534729 420.513824,595.702698 422.751953,595.196350 
	C424.736359,594.747437 426.346039,595.357544 427.591980,596.981995 
	C431.849701,602.533020 436.106476,608.084839 440.390594,613.615479 
	C442.785858,616.707703 445.234253,619.758667 448.697327,622.445801 
	C448.697327,615.182251 448.688324,607.918762 448.702271,600.655212 
	C448.707092,598.139954 448.382019,595.432312 452.319275,595.628479 
	C456.145172,595.819092 455.187073,598.678345 455.206787,600.782043 
	C455.301910,610.944031 455.286957,621.107361 455.246246,631.269897 
	C455.239227,633.018127 455.722321,635.226196 453.374603,635.924622 
	C451.116272,636.596558 449.180115,635.893799 447.671600,633.905273 
	C443.346344,628.203674 438.936951,622.565918 434.350861,616.615295 
z"/>
<path fill="#000000" opacity="1.000000" stroke="none" 
	d="
M596.934326,595.659180 
	C600.345215,594.529785 602.774902,594.953735 604.253601,598.250244 
	C609.429504,609.789307 614.699219,621.286255 619.897888,632.815186 
	C620.217834,633.524841 620.232666,634.372009 620.426086,635.337891 
	C616.498413,636.954468 613.672607,636.221802 612.438354,632.207642 
	C610.891235,627.176147 607.642578,625.470459 602.609070,626.231445 
	C600.655212,626.526855 598.593628,626.497986 596.627625,626.249512 
	C591.447083,625.594727 588.038818,627.327454 586.425598,632.569702 
	C585.352844,636.055359 582.858093,637.165527 579.517517,635.432007 
	C578.608948,633.905579 579.433960,632.700500 579.990112,631.548950 
	C585.697144,619.729919 590.266785,607.381958 596.934326,595.659180 
M595.817261,619.924133 
	C598.268127,620.531738 600.727051,620.806152 603.223389,620.174622 
	C604.647583,619.814331 605.985718,619.096985 605.399963,617.481140 
	C604.017212,613.666626 603.078735,609.546082 599.296204,606.318787 
	C596.455139,610.039978 594.913940,613.981812 593.679199,618.053772 
	C593.399170,618.977173 594.254089,619.504700 595.817261,619.924133 
z"/>
<path fill="#000000" opacity="1.000000" stroke="none" 
	d="
M697.496338,604.868652 
	C701.830505,604.182556 705.415710,605.366699 709.213928,607.382202 
	C710.219727,603.708801 709.726685,600.412537 709.845642,597.180176 
	C709.932251,594.827026 710.237732,592.800232 713.327332,592.878296 
	C716.198608,592.950867 716.353882,594.914795 716.351318,597.027954 
	C716.337158,608.667542 716.392639,620.307861 716.264771,631.946228 
	C716.218689,636.134216 714.175171,637.245117 710.471375,634.930725 
	C708.940002,633.973938 707.973877,633.967346 706.469849,634.523315 
	C696.946655,638.044373 689.017517,634.957031 686.055603,626.666626 
	C682.481567,616.663025 686.448486,608.546814 696.602905,605.088623 
	C696.760254,605.035095 696.920654,604.990417 697.496338,604.868652 
M702.806946,610.749084 
	C701.127136,610.140076 699.544922,610.532043 697.956726,611.157104 
	C692.909485,613.143677 690.223450,618.344360 691.751099,623.234192 
	C693.181335,627.812134 697.883545,631.102844 701.908752,630.342773 
	C707.216614,629.340454 710.427002,624.597107 709.655090,618.751648 
	C709.157166,614.980530 707.184998,612.294006 702.806946,610.749084 
z"/>
<path fill="#000000" opacity="1.000000" stroke="none" 
	d="
M202.008209,606.921143 
	C203.630127,598.734253 207.374619,595.413147 215.188721,594.773071 
	C219.081833,594.454285 222.826370,595.158508 226.423904,596.549866 
	C228.263351,597.261230 231.184082,597.340759 230.161041,600.617737 
	C229.219528,603.633484 227.034515,603.579102 224.553024,602.537292 
	C221.734665,601.354004 218.758820,601.116699 215.737900,601.276978 
	C212.682602,601.439148 209.995651,602.409363 209.380630,605.743347 
	C208.743378,609.197815 211.528168,610.317322 214.056366,611.229492 
	C217.802917,612.581299 221.677582,613.583252 225.405563,614.980042 
	C229.974487,616.691956 232.251480,620.314941 232.139542,625.050110 
	C232.032532,629.575745 229.573792,632.965759 225.358841,634.692139 
	C217.514908,637.904663 210.048767,636.471313 202.926270,632.364502 
	C201.065689,631.291687 200.494095,629.817810 201.655228,627.768860 
	C202.911758,625.551514 204.426956,625.848267 206.213562,626.968933 
	C210.338303,629.556213 214.854691,630.382935 219.619247,629.628174 
	C222.215088,629.216980 224.455765,628.110779 224.768311,625.066406 
	C225.070236,622.125366 222.980515,620.908142 220.722717,620.110596 
	C217.594635,619.005615 214.395081,618.090942 211.197296,617.197998 
	C206.094879,615.773315 202.636368,612.885742 202.008209,606.921143 
z"/>
<path fill="#000000" opacity="1.000000" stroke="none" 
	d="
M741.393188,605.013672 
	C748.529907,607.058411 751.682739,611.742004 752.633850,618.505554 
	C753.122070,621.977844 751.789612,623.077759 748.699036,623.091553 
	C744.546631,623.110046 740.393066,623.092224 736.242676,623.197937 
	C734.464478,623.243225 732.581299,622.813599 730.942749,623.923828 
	C732.044495,629.988403 737.737000,632.214417 744.364685,628.837830 
	C747.104309,627.442139 748.964722,627.249695 750.458496,630.166748 
	C747.020081,636.004211 739.349609,637.846497 731.636536,634.718140 
	C725.260315,632.131958 721.372742,624.059204 723.052551,616.892944 
	C725.051880,608.363708 731.172668,604.273743 741.393188,605.013672 
M730.605530,616.517273 
	C735.583984,618.946472 740.522217,617.753967 745.640381,617.114929 
	C745.097778,612.504089 742.316040,610.849548 739.111694,610.629272 
	C735.349426,610.370605 731.924561,611.676880 730.605530,616.517273 
z"/>
<path fill="#000000" opacity="1.000000" stroke="none" 
	d="
M671.415100,613.691040 
	C667.559631,609.435791 663.406860,610.598572 659.321899,612.456421 
	C657.309631,613.371582 655.723145,614.123047 654.435730,611.462280 
	C653.092896,608.687134 655.099304,607.845642 656.844421,606.960571 
	C660.478882,605.117126 664.378906,604.281677 668.454102,604.683655 
	C675.006104,605.329834 678.577881,609.058594 679.067627,616.363586 
	C679.423279,621.669128 679.128479,627.016174 679.195618,632.343811 
	C679.240845,635.929810 677.058350,637.064270 674.385376,635.698730 
	C671.758545,634.356689 669.705811,634.950439 667.319763,635.721619 
	C664.011597,636.790894 660.715271,636.408142 657.580200,634.992981 
	C654.238037,633.484375 652.420898,630.876526 652.444885,627.140198 
	C652.468445,623.472473 654.095093,620.784607 657.419006,619.138489 
	C660.692017,617.517639 664.210815,617.731689 667.700745,617.660828 
	C670.060120,617.612915 672.200256,617.273865 671.415100,613.691040 
M669.733459,629.313049 
	C671.683105,627.106323 673.775696,624.306152 669.823059,622.742615 
	C666.673401,621.496643 662.892334,622.326965 660.080322,624.787964 
	C658.835022,625.877747 658.789124,627.593811 659.981873,628.804688 
	C662.698547,631.562683 665.865356,631.260315 669.733459,629.313049 
z"/>
<path fill="#000000" opacity="1.000000" stroke="none" 
	d="
M372.965942,608.944336 
	C383.878357,601.113892 395.726257,605.518494 398.004822,617.852783 
	C398.652161,621.356995 397.796600,623.277893 393.772095,623.165466 
	C387.853058,623.000000 381.925995,623.122803 375.787445,623.122803 
	C377.391174,629.231506 381.698944,631.612366 386.925598,629.944458 
	C388.494385,629.443848 389.965912,628.617798 391.449249,627.875305 
	C393.151642,627.023254 394.304474,627.778442 395.312897,629.069702 
	C396.578888,630.690735 395.645447,631.789612 394.451752,632.886658 
	C386.751434,639.963623 371.458557,635.705078 369.117889,625.542419 
	C367.788879,619.772278 368.018829,613.883850 372.965942,608.944336 
M382.744629,610.497253 
	C379.136749,611.450623 375.875793,612.778809 375.262512,617.322021 
	C380.638031,617.322021 385.776978,617.322021 391.194824,617.322021 
	C390.484467,612.346680 387.146576,611.213562 382.744629,610.497253 
z"/>
<path fill="#000000" opacity="1.000000" stroke="none" 
	d="
M479.159058,617.614258 
	C482.028015,615.009277 481.626099,612.685120 478.342957,611.611084 
	C475.202332,610.583618 472.050446,611.021729 469.185760,612.611694 
	C467.245178,613.688904 465.840210,613.688416 464.599548,611.658264 
	C463.145447,609.278687 464.824493,608.218445 466.453430,607.414673 
	C471.183319,605.080933 476.057709,603.955994 481.346008,605.706482 
	C485.715332,607.152771 487.944214,610.273132 488.180450,614.543457 
	C488.510162,620.503357 488.302795,626.493042 488.320770,632.469971 
	C488.330597,635.742004 486.360901,636.764465 483.765045,635.591614 
	C481.514130,634.574585 479.736786,634.931152 477.629181,635.644470 
	C476.100830,636.161743 474.366669,636.260193 472.729523,636.232727 
	C466.851074,636.133972 462.529449,632.634827 462.090942,627.776917 
	C461.642700,622.811218 465.164368,618.973633 471.312866,618.039062 
	C473.758972,617.667297 476.277435,617.771362 479.159058,617.614258 
M481.333099,626.741638 
	C481.852448,625.026001 482.051331,623.205261 479.884003,622.700317 
	C476.783905,621.978210 473.643524,621.963745 470.786194,623.821045 
	C469.453613,624.687317 468.421387,625.777893 468.672638,627.442383 
	C468.920593,629.085022 470.199707,630.040344 471.699310,630.397949 
	C475.351929,631.268982 478.612976,630.668823 481.333099,626.741638 
z"/>
<path fill="#000000" opacity="1.000000" stroke="none" 
	d="
M833.890869,615.021606 
	C834.960693,612.531677 835.961670,610.423645 836.796143,608.251709 
	C838.095947,604.868408 840.356262,604.251587 843.424255,605.516663 
	C844.070679,607.474548 843.193298,608.972961 842.552551,610.464661 
	C838.481628,619.941528 834.463379,629.443115 830.228760,638.846985 
	C827.293457,645.365662 822.453186,648.319031 817.017090,647.024841 
	C814.747314,646.484436 811.553284,646.087524 812.363403,642.522034 
	C813.096436,639.295532 815.468262,639.788757 817.888550,640.805359 
	C820.136719,641.749573 821.711487,640.328064 823.114563,638.854126 
	C824.928528,636.948608 825.093201,634.778198 824.012573,632.400757 
	C820.914490,625.584961 817.837524,618.759216 814.812866,611.910583 
	C813.963440,609.987183 812.536865,608.185669 813.119446,605.643127 
	C816.625732,603.879883 818.907227,604.825745 820.423889,608.535645 
	C822.870728,614.520874 825.523315,620.421936 828.336914,626.932068 
	C831.133484,623.106812 832.240295,619.141479 833.890869,615.021606 
z"/>
<path fill="#000000" opacity="1.000000" stroke="none" 
	d="
M355.726501,622.226013 
	C355.713074,620.762451 355.729584,619.763000 355.683105,618.766541 
	C355.477814,614.363464 353.593048,611.480286 348.816132,611.236755 
	C344.039703,610.993286 340.723999,613.477234 340.271851,618.329956 
	C339.872528,622.616028 340.168060,626.964661 340.102783,631.284851 
	C340.066437,633.690796 339.996735,636.148315 336.558868,636.082031 
	C333.264130,636.018433 332.988770,633.759094 332.992279,631.246765 
	C333.002441,623.926941 332.913361,616.606018 333.015076,609.287659 
	C333.070251,605.315063 335.626648,603.552307 338.806824,605.710876 
	C341.008087,607.205017 342.347717,606.439819 344.188507,605.765991 
	C354.106995,602.135559 362.112793,607.598450 362.274994,618.106812 
	C362.346893,622.763794 362.268799,627.422913 362.279724,632.081055 
	C362.284912,634.286926 361.882080,636.081543 359.084656,636.081726 
	C356.385040,636.081970 355.740479,634.462646 355.754242,632.174072 
	C355.773224,629.013367 355.738922,625.852417 355.726501,622.226013 
z"/>
<path fill="#000000" opacity="1.000000" stroke="none" 
	d="
M540.570801,606.091980 
	C551.540649,602.760193 560.767944,607.424561 562.317383,616.739624 
	C563.874634,626.101318 559.941284,633.137268 551.731628,635.675659 
	C544.371338,637.951355 535.958130,634.148132 532.983643,627.200317 
	C529.534424,619.143677 532.322693,611.049133 540.570801,606.091980 
M538.820984,624.385132 
	C539.427490,625.372742 539.888184,626.497437 540.665710,627.324158 
	C544.025635,630.896362 550.137085,630.915405 553.715393,627.457153 
	C557.570312,623.731689 557.614014,617.504883 553.813538,613.466858 
	C550.481873,609.927002 544.915710,609.691223 541.307983,613.093079 
	C538.239685,615.986206 537.540344,619.623474 538.820984,624.385132 
z"/>
<path fill="#000000" opacity="1.000000" stroke="none" 
	d="
M508.998779,611.770142 
	C504.772552,613.814636 503.187836,616.994690 503.280640,621.217346 
	C503.360962,624.870544 503.281982,628.527100 503.294006,632.182068 
	C503.301300,634.400269 502.868958,636.184937 500.052429,636.077332 
	C497.764587,635.989868 496.778900,634.762512 496.784241,632.581909 
	C496.803711,624.607971 496.822723,616.633972 496.857300,608.660034 
	C496.864258,607.058899 497.316132,605.768616 499.082397,605.211487 
	C501.625122,604.409485 503.088715,605.748230 503.988281,607.892578 
	C506.991913,606.272827 509.524902,604.738770 512.684326,604.673828 
	C519.675720,604.530212 523.917053,607.871887 525.404602,614.704773 
	C526.695923,620.636475 525.881836,626.622864 526.095825,632.580811 
	C526.171814,634.695496 525.294250,636.037598 522.910767,636.107483 
	C520.317017,636.183533 519.223999,634.769043 519.240173,632.458740 
	C519.268127,628.478149 519.609375,624.498596 519.599854,620.519165 
	C519.582458,613.213989 516.668030,610.748474 508.998779,611.770142 
z"/>
<path fill="#000000" opacity="1.000000" stroke="none" 
	d="
M636.197937,629.894287 
	C638.842773,630.007019 640.854736,629.384216 642.612732,627.957886 
	C645.028137,625.998230 647.164673,626.544922 649.437134,628.987671 
	C647.628113,633.693542 643.552551,635.392944 639.096008,636.084534 
	C633.039429,637.024475 627.906616,634.814026 624.145569,630.018494 
	C619.489807,624.082275 620.098389,614.755554 625.231873,609.405823 
	C630.387695,604.032776 639.734009,602.927551 645.832642,607.223206 
	C647.499695,608.397400 650.562073,609.695251 648.551697,612.552551 
	C646.971008,614.799133 644.712036,614.484802 642.499146,612.689392 
	C639.186646,610.001831 635.556885,609.627319 631.960144,612.250488 
	C628.774414,614.573975 626.956055,617.804688 627.658386,621.693359 
	C628.447937,626.064880 630.868347,629.348572 636.197937,629.894287 
z"/>
<path fill="#000000" opacity="1.000000" stroke="none" 
	d="
M309.107361,615.999329 
	C309.092651,621.655396 309.102509,626.811951 309.053528,631.967896 
	C309.029968,634.446655 308.138062,636.222839 305.232513,636.003967 
	C302.432037,635.792969 302.412872,633.882446 302.436401,631.699341 
	C302.560242,620.223450 302.596710,608.746521 302.628662,597.269836 
	C302.634399,595.206238 302.362091,593.117065 305.463806,593.196228 
	C308.035370,593.261902 308.979065,594.708496 308.996796,597.036011 
	C309.043640,603.190491 309.072021,609.345032 309.107361,615.999329 
z"/>
<path fill="#000000" opacity="1.000000" stroke="none" 
	d="
M324.331146,627.918091 
	C323.578308,631.045166 326.361572,635.731018 321.316132,635.854370 
	C315.916901,635.986389 317.994598,631.111694 317.864227,628.258362 
	C317.584778,622.143250 317.836578,616.005066 317.802582,609.876709 
	C317.788116,607.268250 318.280334,605.142212 321.506744,605.273926 
	C324.813477,605.408936 324.268524,607.966370 324.287140,610.040039 
	C324.339142,615.837036 324.319733,621.634705 324.331146,627.918091 
z"/>
<path fill="#000000" opacity="1.000000" stroke="none" 
	d="
M322.526428,600.518127 
	C319.292847,600.977722 317.211731,599.928467 317.000793,596.870667 
	C316.862366,594.864258 318.298157,593.529297 320.207642,593.017456 
	C322.294800,592.458130 323.717072,593.555908 324.579590,595.335754 
	C325.631042,597.505615 324.691345,599.114990 322.526428,600.518127 
z"/>
</svg>